<svg width="24" height="25" viewBox="0 0 24 25" fill="none" xmlns="http://www.w3.org/2000/svg">
<path fill-rule="evenodd" clip-rule="evenodd" d="M21 17.9138C21 20.123 19.2091 21.9138 17 21.9138H7C4.79086 21.9138 3 20.123 3 17.9138V7.91382C3 5.70468 4.79086 3.91382 7 3.91382H17C19.2091 3.91382 21 5.70468 21 7.91382V17.9138ZM17 19.9138C18.1046 19.9138 19 19.0184 19 17.9138V7.91382C19 6.80925 18.1046 5.91382 17 5.91382H7C5.89543 5.91382 5 6.80925 5 7.91382V17.9138C5 19.0184 5.89543 19.9138 7 19.9138H17Z" fill="#333333" stroke="white"/>
<path fill-rule="evenodd" clip-rule="evenodd" d="M8.29289 15.2067C7.90237 15.5972 7.90237 16.2304 8.29289 16.6209C8.68342 17.0114 9.31658 17.0114 9.70711 16.6209L14 12.328V16.9138H16V9.91382C16 9.36153 15.5523 8.91382 15 8.91382H8V10.9138H12.5858L8.29289 15.2067Z" fill="#333333" stroke="white" stroke-linecap="square" stroke-linejoin="round"/>
</svg>
