<svg width="24" height="25" viewBox="0 0 24 25" fill="none" xmlns="http://www.w3.org/2000/svg">
<path fill-rule="evenodd" clip-rule="evenodd" d="M16.5014 3.03882C16.6503 2.95582 16.8313 2.91382 17.0012 2.91382H20.0003C20.5521 2.91382 21 3.36182 21 3.91382V20.9138C21 21.4658 20.5521 21.9138 20.0003 21.9138H16.0325C15.4807 21.9138 15.0328 21.4658 15.0328 20.9138C15.0328 20.3618 15.4807 19.9138 16.0325 19.9138H19.0006V4.91382H17.2822L9.0037 9.50781V19.9138H11.9408C12.4926 19.9138 12.9405 20.3618 12.9405 20.9138C12.9405 21.4658 12.4926 21.9138 11.9408 21.9138H8.00401C7.94653 21.9138 7.89017 21.909 7.83533 21.8996H2.99969C2.44758 21.8996 2 21.4519 2 20.8996V12.8996C2 12.5209 2.21394 12.1746 2.55262 12.0052L7.00432 9.77866V8.91382C7.00432 8.55082 7.18726 8.21482 7.50416 8.03882L16.5014 3.03882ZM7.00432 12.0147L3.99938 13.5177V19.8996H7.00432V12.0147Z" fill="#333333" stroke="white" stroke-linecap="round" stroke-linejoin="round"/>
<path fill-rule="evenodd" clip-rule="evenodd" d="M16 9.91382C16.5523 9.91382 17 9.4661 17 8.91382C17 8.36153 16.5523 7.91382 16 7.91382C15.4477 7.91382 15 8.36153 15 8.91382C15 9.4661 15.4477 9.91382 16 9.91382ZM16 13.9138C16.5523 13.9138 17 13.4661 17 12.9138C17 12.3615 16.5523 11.9138 16 11.9138C15.4477 11.9138 15 12.3615 15 12.9138C15 13.4661 15.4477 13.9138 16 13.9138ZM13 16.9138C13 17.4661 12.5523 17.9138 12 17.9138C11.4477 17.9138 11 17.4661 11 16.9138C11 16.3615 11.4477 15.9138 12 15.9138C12.5523 15.9138 13 16.3615 13 16.9138ZM17 16.9138C17 17.4661 16.5523 17.9138 16 17.9138C15.4477 17.9138 15 17.4661 15 16.9138C15 16.3615 15.4477 15.9138 16 15.9138C16.5523 15.9138 17 16.3615 17 16.9138ZM13 12.9138C13 13.4661 12.5523 13.9138 12 13.9138C11.4477 13.9138 11 13.4661 11 12.9138C11 12.3615 11.4477 11.9138 12 11.9138C12.5523 11.9138 13 12.3615 13 12.9138Z" fill="#333333"/>
</svg>
