<svg width="24" height="25" viewBox="0 0 24 25" fill="none" xmlns="http://www.w3.org/2000/svg">
<path fill-rule="evenodd" clip-rule="evenodd" d="M2 8.91382C2 6.70468 3.79086 4.91382 6 4.91382H18C20.2091 4.91382 22 6.70468 22 8.91382V16.9138C22 19.123 20.2091 20.9138 18 20.9138H6C3.79086 20.9138 2 19.123 2 16.9138V8.91382ZM18.0162 12.9793C18.7443 12.4626 19.4277 11.947 20 11.5022V16.9138C20 18.0184 19.1046 18.9138 18 18.9138H6C4.89543 18.9138 4 18.0184 4 16.9138V11.5022C4.57232 11.947 5.25569 12.4626 5.98375 12.9793C6.96807 13.6779 8.05311 14.392 9.06624 14.9356C10.0277 15.4515 11.1002 15.9138 12 15.9138C12.8998 15.9138 13.9723 15.4515 14.9338 14.9356C15.9469 14.392 17.0319 13.6779 18.0162 12.9793ZM4 8.94405C4.17276 9.08569 4.40277 9.27236 4.67708 9.49049C5.31636 9.99883 6.19183 10.6745 7.14125 11.3483C8.09443 12.0248 9.10314 12.6857 10.0119 13.1733C10.9723 13.6886 11.6498 13.9138 12 13.9138C12.3502 13.9138 13.0277 13.6886 13.9881 13.1733C14.8969 12.6857 15.9056 12.0248 16.8588 11.3483C17.8082 10.6745 18.6836 9.99883 19.3229 9.49049C19.5972 9.27236 19.8272 9.08569 20 8.94405V8.91382C20 7.80925 19.1046 6.91382 18 6.91382H6C4.89543 6.91382 4 7.80925 4 8.91382V8.94405Z" fill="#333333"/>
<path d="M20 11.5022H20.5V10.4804L19.6932 11.1074L20 11.5022ZM18.0162 12.9793L17.7269 12.5716L18.0162 12.9793ZM4 11.5022L4.30682 11.1074L3.5 10.4804V11.5022H4ZM5.98375 12.9793L6.27313 12.5716L5.98375 12.9793ZM9.06624 14.9356L8.82984 15.3762L9.06624 14.9356ZM14.9338 14.9356L15.1702 15.3762L14.9338 14.9356ZM4.67708 9.49049L4.36588 9.88184H4.36588L4.67708 9.49049ZM4 8.94405H3.5V9.18066L3.68298 9.33069L4 8.94405ZM7.14125 11.3483L6.85187 11.7561L7.14125 11.3483ZM10.0119 13.1733L9.77547 13.6139L10.0119 13.1733ZM13.9881 13.1733L14.2245 13.6139L13.9881 13.1733ZM16.8588 11.3483L17.1481 11.7561L16.8588 11.3483ZM19.3229 9.49049L19.0117 9.09914V9.09914L19.3229 9.49049ZM20 8.94405L20.317 9.33069L20.5 9.18066V8.94405H20ZM6 4.41382C3.51472 4.41382 1.5 6.42854 1.5 8.91382H2.5C2.5 6.98082 4.067 5.41382 6 5.41382V4.41382ZM18 4.41382H6V5.41382H18V4.41382ZM22.5 8.91382C22.5 6.42854 20.4853 4.41382 18 4.41382V5.41382C19.933 5.41382 21.5 6.98082 21.5 8.91382H22.5ZM22.5 16.9138V8.91382H21.5V16.9138H22.5ZM18 21.4138C20.4853 21.4138 22.5 19.3991 22.5 16.9138H21.5C21.5 18.8468 19.933 20.4138 18 20.4138V21.4138ZM6 21.4138H18V20.4138H6V21.4138ZM1.5 16.9138C1.5 19.3991 3.51472 21.4138 6 21.4138V20.4138C4.067 20.4138 2.5 18.8468 2.5 16.9138H1.5ZM1.5 8.91382V16.9138H2.5V8.91382H1.5ZM19.6932 11.1074C19.125 11.549 18.4476 12.0601 17.7269 12.5716L18.3056 13.3871C19.041 12.8652 19.7303 12.345 20.3068 11.897L19.6932 11.1074ZM20.5 16.9138V11.5022H19.5V16.9138H20.5ZM18 19.4138C19.3807 19.4138 20.5 18.2945 20.5 16.9138H19.5C19.5 17.7422 18.8284 18.4138 18 18.4138V19.4138ZM6 19.4138H18V18.4138H6V19.4138ZM3.5 16.9138C3.5 18.2945 4.61929 19.4138 6 19.4138V18.4138C5.17157 18.4138 4.5 17.7422 4.5 16.9138H3.5ZM3.5 11.5022V16.9138H4.5V11.5022H3.5ZM6.27313 12.5716C5.55238 12.0601 4.87497 11.549 4.30682 11.1074L3.69318 11.897C4.26968 12.345 4.95901 12.8652 5.69438 13.3871L6.27313 12.5716ZM9.30265 14.495C8.31561 13.9654 7.24965 13.2646 6.27313 12.5716L5.69438 13.3871C6.6865 14.0912 7.79061 14.8185 8.82984 15.3762L9.30265 14.495ZM12 15.4138C11.2372 15.4138 10.2631 15.0104 9.30265 14.495L8.82984 15.3762C9.79241 15.8927 10.9631 16.4138 12 16.4138V15.4138ZM14.6973 14.495C13.7369 15.0104 12.7628 15.4138 12 15.4138V16.4138C13.0369 16.4138 14.2076 15.8927 15.1702 15.3762L14.6973 14.495ZM17.7269 12.5716C16.7503 13.2646 15.6844 13.9654 14.6973 14.495L15.1702 15.3762C16.2094 14.8185 17.3135 14.0912 18.3056 13.3871L17.7269 12.5716ZM4.98828 9.09914C4.71614 8.88274 4.48808 8.69765 4.31702 8.5574L3.68298 9.33069C3.85743 9.47374 4.0894 9.66199 4.36588 9.88184L4.98828 9.09914ZM7.43062 10.9406C6.49088 10.2736 5.62297 9.60384 4.98828 9.09914L4.36588 9.88184C5.00974 10.3938 5.89279 11.0754 6.85187 11.7561L7.43062 10.9406ZM10.2483 12.7327C9.36566 12.2591 8.37602 11.6115 7.43062 10.9406L6.85187 11.7561C7.81283 12.438 8.84063 13.1122 9.77547 13.6139L10.2483 12.7327ZM12 13.4138C11.9123 13.4138 11.7205 13.381 11.4051 13.2667C11.1004 13.1563 10.7135 12.9823 10.2483 12.7327L9.77547 13.6139C10.2707 13.8796 10.7027 14.0758 11.0645 14.2069C11.4154 14.334 11.7375 14.4138 12 14.4138V13.4138ZM13.7517 12.7327C13.2865 12.9823 12.8996 13.1563 12.5949 13.2667C12.2795 13.381 12.0877 13.4138 12 13.4138V14.4138C12.2625 14.4138 12.5846 14.334 12.9355 14.2069C13.2973 14.0758 13.7293 13.8796 14.2245 13.6139L13.7517 12.7327ZM16.5694 10.9406C15.624 11.6115 14.6343 12.2591 13.7517 12.7327L14.2245 13.6139C15.1594 13.1122 16.1872 12.438 17.1481 11.7561L16.5694 10.9406ZM19.0117 9.09914C18.377 9.60384 17.5091 10.2736 16.5694 10.9406L17.1481 11.7561C18.1072 11.0754 18.9903 10.3938 19.6341 9.88184L19.0117 9.09914ZM19.683 8.5574C19.5119 8.69765 19.2839 8.88274 19.0117 9.09914L19.6341 9.88184C19.9106 9.66198 20.1426 9.47373 20.317 9.33069L19.683 8.5574ZM19.5 8.91382V8.94405H20.5V8.91382H19.5ZM18 7.41382C18.8284 7.41382 19.5 8.08539 19.5 8.91382H20.5C20.5 7.53311 19.3807 6.41382 18 6.41382V7.41382ZM6 7.41382H18V6.41382H6V7.41382ZM4.5 8.91382C4.5 8.08539 5.17157 7.41382 6 7.41382V6.41382C4.61929 6.41382 3.5 7.53311 3.5 8.91382H4.5ZM4.5 8.94405V8.91382H3.5V8.94405H4.5Z" fill="white"/>
</svg>
