<svg width="40" height="41" viewBox="0 0 40 41" fill="none" xmlns="http://www.w3.org/2000/svg">
<circle cx="20" cy="20.9138" r="19.5" stroke="#FC6061"/>
<path d="M31.4001 10.7657H23.6747L23.6463 10.6899C23.2581 9.67692 22.2735 9 21.1942 9H16.0676C14.6191 9 13.4404 10.1787 13.4404 11.6272V14.7988L13.3978 14.8367C13.1185 15.0734 12.9954 15.4426 13.0664 15.8166L13.27 16.9243C13.3362 17.2604 13.5114 17.4355 13.6486 17.516C13.7859 17.6012 13.9469 17.6438 14.1362 17.6438H14.2546V17.9609C14.2546 18.9266 14.8226 19.9965 15.8167 20.8959C16.0013 21.0663 16.2001 21.2225 16.3989 21.3645L16.451 21.3976V22.0509C16.451 22.2876 16.2806 22.4959 16.0486 22.5385C16.0439 22.5385 16.0344 22.5432 16.0297 22.5432H16.025C15.8735 22.5811 15.3197 22.7278 14.6238 22.9266L14.6096 22.9314H11.9776C11.7173 22.9314 11.4664 23.0402 11.2913 23.2296C11.1161 23.4189 11.0214 23.6793 11.0404 23.9349L11.0546 24.1148L10.9836 24.1479C9.86167 24.716 9.14688 25.7337 9.0806 26.8793V26.8935L9.00013 31.774C8.9954 32.1006 9.11847 32.4083 9.35043 32.6402C9.57765 32.8722 9.88534 33 10.212 33H27.0498C27.3764 33 27.6841 32.8722 27.9114 32.6402C28.1433 32.4083 28.2664 32.1006 28.2617 31.774L28.1812 26.8793C28.1102 25.6959 27.3622 24.6639 26.1788 24.1101C26.1551 24.1006 26.1315 24.0911 26.1078 24.0769L26.0321 24.0438L26.0415 23.9444C26.0605 23.684 25.9705 23.4284 25.7907 23.2343C25.6108 23.045 25.3646 22.9361 25.1043 22.9361H22.6617L22.6475 22.9314C21.8522 22.7041 21.2415 22.5479 21.2368 22.5479C21.2273 22.5479 21.2273 22.5432 21.2179 22.5432C20.9812 22.5006 20.8108 22.297 20.8108 22.0556V21.4024L20.8628 21.3645C21.0664 21.2225 21.2605 21.0615 21.4451 20.8959C22.0699 20.3278 22.5386 19.684 22.7895 19.0355L22.8179 18.9598H25.3551L24.9149 20.7349C24.8581 20.9574 24.948 21.1799 25.1374 21.3077C25.2273 21.3645 25.3267 21.3976 25.4262 21.3976C25.5445 21.3976 25.6534 21.3598 25.748 21.284L28.7682 18.9645H31.3906C32.2617 18.9645 32.967 18.2544 32.967 17.3882V12.342C32.9812 11.471 32.2711 10.7657 31.4001 10.7657ZM23.5185 15.1586L23.5563 15.1917C23.6983 15.3195 23.7646 15.5231 23.7315 15.7266L23.5327 16.8296C23.5043 16.9669 23.4522 17.0615 23.3717 17.1136C23.3102 17.1515 23.2344 17.1704 23.135 17.1704H23.0167V15.2675L23.0972 15.2391C23.2439 15.187 23.3812 15.168 23.4711 15.1586H23.5185ZM14.1315 17.1704C14.0368 17.1704 13.9563 17.1515 13.8948 17.1136C13.8096 17.0615 13.7575 16.9716 13.7339 16.8343L13.5303 15.7266C13.4924 15.5231 13.5587 15.3195 13.7007 15.1917L13.7386 15.1586L13.7907 15.1633C13.8806 15.1728 14.0179 15.1917 14.1646 15.2391L14.2451 15.2675V17.1704H14.1315ZM10.9646 32.3751L11.0072 32.5266H10.212C10.0131 32.5266 9.82853 32.4462 9.68652 32.3089C9.54451 32.1669 9.4735 31.9822 9.4735 31.7834L9.55398 26.8982C9.61078 26.0083 10.0936 25.2367 10.922 24.7302L11.0877 24.626L11.5327 30.903C11.5374 30.9976 11.5611 31.0923 11.5989 31.187L11.6463 31.3053L11.5232 31.3432C11.1682 31.4568 10.9268 31.7787 10.9268 32.1527C10.9362 32.2284 10.9457 32.3041 10.9646 32.3751ZM25.4782 32.5266H11.7836C11.5753 32.5266 11.4096 32.3562 11.4096 32.1527C11.4096 31.9444 11.58 31.7787 11.7836 31.7787H25.4782C25.6865 31.7787 25.8522 31.9444 25.8522 32.1527C25.8522 32.3562 25.6865 32.5266 25.4782 32.5266ZM25.9989 24.5408L26.1599 24.626C27.083 25.1231 27.6463 25.9515 27.7078 26.8982V26.903L27.7883 31.7787C27.7883 31.9775 27.7173 32.1669 27.5753 32.3089C27.4333 32.4509 27.2486 32.5266 27.0498 32.5266H26.2546L26.2972 32.3751C26.3161 32.3041 26.3256 32.2284 26.3256 32.1479C26.3256 31.7219 26.0084 31.3621 25.5871 31.3053L25.4404 31.2864L25.4924 31.1491C25.5208 31.0686 25.5398 30.9834 25.5445 30.8982L25.9989 24.5408ZM25.1043 23.4047C25.2368 23.4047 25.3551 23.4568 25.4451 23.5515C25.5256 23.6414 25.5729 23.7503 25.5729 23.8686C25.5729 23.8781 25.5729 23.8923 25.5729 23.9018L25.0711 30.8698C25.0522 31.1112 24.8486 31.3053 24.6072 31.3053H12.4747C12.2333 31.3053 12.025 31.116 12.0108 30.8698L11.5137 23.9065C11.5043 23.774 11.5469 23.6509 11.6368 23.5562C11.7268 23.4615 11.8451 23.4095 11.9776 23.4095H25.1043V23.4047ZM20.8202 22.9314H16.4463L16.6451 22.7278C16.825 22.5432 16.9244 22.3065 16.9244 22.0509V21.6959L17.0948 21.7858C17.6486 22.0746 18.1836 22.226 18.6333 22.226C19.083 22.226 19.6179 22.0746 20.1717 21.7858L20.3421 21.6959V22.0509C20.3421 22.3065 20.4415 22.5479 20.6214 22.7278L20.8202 22.9314ZM22.5386 17.9562C22.5386 18.7893 22.0273 19.7314 21.1327 20.5408C20.3185 21.2793 19.3386 21.7527 18.6333 21.7527C17.9279 21.7527 16.9481 21.2793 16.1339 20.5408C15.2392 19.7314 14.7279 18.7893 14.7279 17.9562V15.5988H14.8557C14.9078 15.5988 14.9599 15.5893 15.0072 15.5704C15.1492 15.5089 15.2392 15.3763 15.2392 15.2201V12.6402C15.2392 12.1905 15.6084 11.8213 16.0581 11.8213H17.0191C17.2179 11.8213 17.4072 11.8876 17.5587 12.0154L17.6534 12.0911C17.9327 12.3183 18.2782 12.4414 18.638 12.4414C18.9978 12.4414 19.3433 12.3183 19.6226 12.0911L19.7173 12.0154C19.8688 11.8923 20.0628 11.8213 20.2569 11.8213H21.2179C21.6676 11.8213 22.0368 12.1905 22.0368 12.6402V15.2249C22.0368 15.3763 22.1267 15.5136 22.2688 15.5751C22.3208 15.5941 22.3729 15.6036 22.425 15.6036L22.5481 15.5988L22.5386 17.9562ZM22.6759 14.9077L22.5007 15.0024V12.6402C22.5007 11.9302 21.9232 11.3479 21.2084 11.3479H20.2475C19.9398 11.3479 19.6415 11.4568 19.4049 11.6462L19.3102 11.7219C19.1161 11.8781 18.8747 11.968 18.6238 11.968C18.3729 11.968 18.1362 11.8828 17.9469 11.7266L17.8522 11.6509C17.6155 11.4568 17.3173 11.3527 17.0096 11.3527H16.0534C15.3386 11.3527 14.7611 11.9349 14.7611 12.645V15.0071L14.5859 14.9124C14.4155 14.8225 14.2214 14.7562 14.0131 14.7183L13.9137 14.6994V11.6272C13.9137 10.4391 14.8794 9.47337 16.0676 9.47337H21.1942C22.3824 9.47337 23.348 10.4391 23.348 11.6272V14.6994L23.2486 14.7183C23.0356 14.7515 22.8463 14.8178 22.6759 14.9077ZM32.5078 17.3787C32.5078 17.9893 32.0108 18.4817 31.4048 18.4817H28.7019C28.6498 18.4817 28.5977 18.5006 28.5599 18.529L25.3457 20.9953L25.8948 18.7704C25.9137 18.6994 25.8948 18.6237 25.8522 18.5669C25.8049 18.5101 25.7386 18.4769 25.6676 18.4769H22.9646L22.9836 18.3396C23.0025 18.2071 23.012 18.0746 23.012 17.9467V17.6296H23.1303C23.3196 17.6296 23.4806 17.587 23.6179 17.5018C23.7551 17.4166 23.9303 17.2462 23.9966 16.9053L24.1954 15.8024C24.2617 15.4284 24.1386 15.0592 23.864 14.8225L23.8214 14.7846V11.613C23.8214 11.5278 23.8167 11.4426 23.8072 11.3574L23.793 11.2296H31.4001C32.0108 11.2296 32.5031 11.7266 32.5031 12.3325V17.3787H32.5078Z" fill="black"/>
<path d="M26.9883 15.9611L25.3062 14.8736L26.9883 13.7935V13.2795L25 14.6128V15.1343L26.9883 16.4676V15.9611Z" fill="black"/>
<path d="M27.5775 17L28.6 13H28.3216L27.3071 17H27.5775Z" fill="black"/>
<path d="M31 15.1343V14.6128L29.0117 13.2795V13.7935L30.6938 14.8736L29.0117 15.9611V16.4676L31 15.1343Z" fill="black"/>
</svg>
