<svg width="40" height="41" viewBox="0 0 40 41" fill="none" xmlns="http://www.w3.org/2000/svg">
<circle cx="20" cy="20.9138" r="19.5" stroke="#FC6061"/>
<path d="M32.4001 9.67944H24.6747L24.6463 9.6037C24.2581 8.59068 23.2735 7.91376 22.1942 7.91376H17.0676C15.6191 7.91376 14.4404 9.09246 14.4404 10.541V13.7126L14.3978 13.7504C14.1185 13.9871 13.9954 14.3564 14.0664 14.7303L14.27 15.838C14.3362 16.1741 14.5114 16.3493 14.6486 16.4297C14.7859 16.5149 14.9469 16.5575 15.1362 16.5575H15.2546V16.8747C15.2546 17.8404 15.8226 18.9102 16.8167 19.8096C17.0013 19.98 17.2001 20.1362 17.3989 20.2783L17.451 20.3114V20.9646C17.451 21.2013 17.2806 21.4096 17.0486 21.4522C17.0439 21.4522 17.0344 21.457 17.0297 21.457H17.025C16.8735 21.4948 16.3197 21.6416 15.6238 21.8404L15.6096 21.8451H12.9776C12.7173 21.8451 12.4664 21.954 12.2913 22.1433C12.1161 22.3327 12.0214 22.593 12.0404 22.8487L12.0546 23.0286L11.9836 23.0617C10.8617 23.6297 10.1469 24.6475 10.0806 25.793V25.8072L10.0001 30.6877C9.9954 31.0143 10.1185 31.322 10.3504 31.554C10.5776 31.7859 10.8853 31.9138 11.212 31.9138H28.0498C28.3764 31.9138 28.6841 31.7859 28.9114 31.554C29.1433 31.322 29.2664 31.0143 29.2617 30.6877L29.1812 25.793C29.1102 24.6096 28.3622 23.5777 27.1788 23.0238C27.1551 23.0143 27.1315 23.0049 27.1078 22.9907L27.0321 22.9575L27.0415 22.8581C27.0605 22.5978 26.9705 22.3422 26.7907 22.1481C26.6108 21.9587 26.3646 21.8499 26.1043 21.8499H23.6617L23.6475 21.8451C22.8522 21.6179 22.2415 21.4617 22.2368 21.4617C22.2273 21.4617 22.2273 21.457 22.2179 21.457C21.9812 21.4143 21.8108 21.2108 21.8108 20.9694V20.3161L21.8628 20.2783C22.0664 20.1362 22.2605 19.9753 22.4451 19.8096C23.0699 19.2416 23.5386 18.5978 23.7895 17.9493L23.8179 17.8735H26.3551L25.9149 19.6487C25.8581 19.8712 25.948 20.0936 26.1374 20.2214C26.2273 20.2783 26.3267 20.3114 26.4262 20.3114C26.5445 20.3114 26.6534 20.2735 26.748 20.1978L29.7682 17.8783H32.3906C33.2617 17.8783 33.967 17.1682 33.967 16.3019V11.2558C33.9812 10.3848 33.2711 9.67944 32.4001 9.67944ZM24.5185 14.0723L24.5563 14.1055C24.6983 14.2333 24.7646 14.4368 24.7315 14.6404L24.5327 15.7433C24.5043 15.8806 24.4522 15.9753 24.3717 16.0274C24.3102 16.0652 24.2344 16.0842 24.135 16.0842H24.0167V14.1812L24.0972 14.1528C24.2439 14.1007 24.3812 14.0818 24.4711 14.0723H24.5185ZM15.1315 16.0842C15.0368 16.0842 14.9563 16.0652 14.8948 16.0274C14.8096 15.9753 14.7575 15.8854 14.7339 15.7481L14.5303 14.6404C14.4924 14.4368 14.5587 14.2333 14.7007 14.1055L14.7386 14.0723L14.7907 14.0771C14.8806 14.0865 15.0179 14.1055 15.1646 14.1528L15.2451 14.1812V16.0842H15.1315ZM11.9646 31.2889L12.0072 31.4404H11.212C11.0131 31.4404 10.8285 31.3599 10.6865 31.2226C10.5445 31.0806 10.4735 30.896 10.4735 30.6972L10.554 25.812C10.6108 24.922 11.0936 24.1504 11.922 23.6439L12.0877 23.5398L12.5327 29.8167C12.5374 29.9114 12.5611 30.0061 12.5989 30.1007L12.6463 30.2191L12.5232 30.257C12.1682 30.3706 11.9268 30.6925 11.9268 31.0664C11.9362 31.1422 11.9457 31.2179 11.9646 31.2889ZM26.4782 31.4404H12.7836C12.5753 31.4404 12.4096 31.27 12.4096 31.0664C12.4096 30.8581 12.58 30.6925 12.7836 30.6925H26.4782C26.6865 30.6925 26.8522 30.8581 26.8522 31.0664C26.8522 31.27 26.6865 31.4404 26.4782 31.4404ZM26.9989 23.4546L27.1599 23.5398C28.083 24.0368 28.6463 24.8652 28.7078 25.812V25.8167L28.7883 30.6925C28.7883 30.8913 28.7173 31.0806 28.5753 31.2226C28.4333 31.3646 28.2486 31.4404 28.0498 31.4404H27.2546L27.2972 31.2889C27.3161 31.2179 27.3256 31.1422 27.3256 31.0617C27.3256 30.6357 27.0084 30.2759 26.5871 30.2191L26.4404 30.2001L26.4924 30.0629C26.5208 29.9824 26.5398 29.8972 26.5445 29.812L26.9989 23.4546ZM26.1043 22.3185C26.2368 22.3185 26.3551 22.3706 26.4451 22.4652C26.5256 22.5552 26.5729 22.6641 26.5729 22.7824C26.5729 22.7919 26.5729 22.8061 26.5729 22.8155L26.0711 29.7836C26.0522 30.025 25.8486 30.2191 25.6072 30.2191H13.4747C13.2333 30.2191 13.025 30.0297 13.0108 29.7836L12.5137 22.8203C12.5043 22.6877 12.5469 22.5646 12.6368 22.47C12.7268 22.3753 12.8451 22.3232 12.9776 22.3232H26.1043V22.3185ZM21.8202 21.8451H17.4463L17.6451 21.6416C17.825 21.457 17.9244 21.2203 17.9244 20.9646V20.6096L18.0948 20.6996C18.6486 20.9883 19.1836 21.1398 19.6333 21.1398C20.083 21.1398 20.6179 20.9883 21.1717 20.6996L21.3421 20.6096V20.9646C21.3421 21.2203 21.4415 21.4617 21.6214 21.6416L21.8202 21.8451ZM23.5386 16.87C23.5386 17.7031 23.0273 18.6451 22.1327 19.4546C21.3185 20.193 20.3386 20.6664 19.6333 20.6664C18.9279 20.6664 17.9481 20.193 17.1339 19.4546C16.2392 18.6451 15.7279 17.7031 15.7279 16.87V14.5126H15.8557C15.9078 14.5126 15.9599 14.5031 16.0072 14.4842C16.1492 14.4226 16.2392 14.2901 16.2392 14.1339V11.554C16.2392 11.1043 16.6084 10.7351 17.0581 10.7351H18.0191C18.2179 10.7351 18.4072 10.8013 18.5587 10.9291L18.6534 11.0049C18.9327 11.2321 19.2782 11.3552 19.638 11.3552C19.9978 11.3552 20.3433 11.2321 20.6226 11.0049L20.7173 10.9291C20.8688 10.8061 21.0628 10.7351 21.2569 10.7351H22.2179C22.6676 10.7351 23.0368 11.1043 23.0368 11.554V14.1386C23.0368 14.2901 23.1267 14.4274 23.2688 14.4889C23.3208 14.5078 23.3729 14.5173 23.425 14.5173L23.5481 14.5126L23.5386 16.87ZM23.6759 13.8214L23.5007 13.9161V11.554C23.5007 10.8439 22.9232 10.2617 22.2084 10.2617H21.2475C20.9398 10.2617 20.6415 10.3706 20.4049 10.5599L20.3102 10.6357C20.1161 10.7919 19.8747 10.8818 19.6238 10.8818C19.3729 10.8818 19.1362 10.7966 18.9469 10.6404L18.8522 10.5646C18.6155 10.3706 18.3173 10.2664 18.0096 10.2664H17.0534C16.3386 10.2664 15.7611 10.8487 15.7611 11.5587V13.9209L15.5859 13.8262C15.4155 13.7362 15.2214 13.67 15.0131 13.6321L14.9137 13.6132V10.541C14.9137 9.35281 15.8794 8.38713 17.0676 8.38713H22.1942C23.3824 8.38713 24.348 9.35281 24.348 10.541V13.6132L24.2486 13.6321C24.0356 13.6652 23.8463 13.7315 23.6759 13.8214ZM33.5078 16.2925C33.5078 16.9031 33.0108 17.3954 32.4048 17.3954H29.7019C29.6498 17.3954 29.5977 17.4143 29.5599 17.4428L26.3457 19.909L26.8948 17.6842C26.9137 17.6132 26.8948 17.5374 26.8522 17.4806C26.8049 17.4238 26.7386 17.3907 26.6676 17.3907H23.9646L23.9836 17.2534C24.0025 17.1209 24.012 16.9883 24.012 16.8605V16.5433H24.1303C24.3196 16.5433 24.4806 16.5007 24.6179 16.4155C24.7551 16.3303 24.9303 16.1599 24.9966 15.8191L25.1954 14.7161C25.2617 14.3422 25.1386 13.9729 24.864 13.7362L24.8214 13.6984V10.5268C24.8214 10.4416 24.8167 10.3564 24.8072 10.2712L24.793 10.1433H32.4001C33.0108 10.1433 33.5031 10.6404 33.5031 11.2463V16.2925H33.5078Z" fill="black"/>
</svg>
