<svg width="40" height="41" viewBox="0 0 40 41" fill="none" xmlns="http://www.w3.org/2000/svg">
<circle cx="20" cy="20.9138" r="19.5" stroke="#FC6061"/>
<g clip-path="url(#clip0_444_2516)">
<path d="M8.8788 22.6623C9.0152 22.6623 9.12577 22.5453 9.12577 22.401C9.12577 22.2566 9.0152 22.1396 8.8788 22.1396C8.74241 22.1396 8.63184 22.2566 8.63184 22.401C8.63184 22.5453 8.74241 22.6623 8.8788 22.6623Z" fill="black"/>
<path d="M9.11991 24.1575C9.11991 24.3027 9.01015 24.4188 8.87294 24.4188C8.73574 24.4188 8.62598 24.3027 8.62598 24.1575C8.62598 24.0123 8.73574 23.8962 8.87294 23.8962C9.01015 23.8962 9.11991 24.0196 9.11991 24.1575Z" fill="black"/>
<path d="M32.5747 19.8532C32.4375 19.708 32.2797 19.5919 32.1013 19.5193C31.923 19.4394 31.7377 19.4031 31.5388 19.4031C31.1478 19.4031 30.7842 19.5628 30.5029 19.8604L27.5942 22.9308V21.1524C27.5942 21.029 27.4982 20.9274 27.3815 20.9274C27.2649 20.9274 27.1689 21.029 27.1689 21.1524V23.3881L26.6475 23.9397H24.1984L24.3631 23.6639C24.5071 23.4171 24.5826 23.134 24.5826 22.8509C24.5826 22.4372 24.4317 22.0525 24.1573 21.7549C23.9926 21.5807 23.7868 21.4428 23.5604 21.3702L23.4369 21.3339V18.9386C23.4369 18.4015 23.2517 17.8861 22.9224 17.4869L22.6755 17.182H25.5156C26.428 17.182 27.1689 17.9659 27.1689 18.9386V19.2434C27.1689 19.3668 27.2649 19.4685 27.3815 19.4685C27.4982 19.4685 27.5942 19.3668 27.5942 19.2434V18.9386C27.5942 17.8716 26.8739 16.957 25.8792 16.7683L25.5567 16.7102L25.7831 16.4634C26.2084 16.0061 26.4417 15.4037 26.4417 14.7577V14.6996C26.4417 14.6778 26.4417 14.6415 26.4417 14.6125C26.3868 13.3786 25.4332 12.3769 24.2739 12.3261C24.267 12.3261 24.2602 12.3261 24.2533 12.3261C24.2259 12.3261 24.1984 12.3261 24.1778 12.3261H24.1573C23.9515 12.3261 23.7456 12.3551 23.5467 12.4132V12.4204C23.4438 12.4495 23.3478 12.493 23.2449 12.5366C22.8264 12.7398 22.4765 13.0664 22.2364 13.4874L22.0923 13.7415L21.9483 13.4874C21.7082 13.0664 21.3583 12.7398 20.9398 12.5366C20.638 12.4059 20.3224 12.3333 20 12.3333C19.6776 12.3333 19.362 12.4059 19.067 12.5438C18.6485 12.7471 18.2987 13.0737 18.0586 13.4947L17.9145 13.7487L17.7704 13.4947C17.5303 13.0737 17.1805 12.7471 16.762 12.5438C16.6591 12.493 16.5631 12.4567 16.4602 12.4277V12.4204C16.2612 12.3624 16.0554 12.3333 15.8496 12.3333H15.8359H15.8222C15.7947 12.3333 15.7741 12.3333 15.7467 12.3333C14.5187 12.3769 13.5515 13.4294 13.5515 14.7359V14.7577C13.5515 14.7649 13.5515 14.7795 13.5515 14.794C13.5583 15.4255 13.7984 16.0134 14.21 16.4634L14.4364 16.7102L14.1208 16.7683C13.1261 16.957 12.4058 17.8716 12.4058 18.9386V21.2903H10.7594V20.6371C10.7594 20.5137 10.6633 20.4121 10.5467 20.4121H7.21266C7.09604 20.4121 7 20.5137 7 20.6371V29.4344C7 29.5578 7.09604 29.6594 7.21266 29.6594H10.5398C10.6565 29.6594 10.7525 29.5578 10.7525 29.4344V28.7811H12.4127L17.4755 29.115C17.5921 29.1223 17.695 29.0279 17.7018 28.9045C17.7087 28.7811 17.6195 28.6723 17.5029 28.665L12.6322 28.3384V21.6242L13.4142 20.971C13.7504 20.6879 14.1277 20.4701 14.5393 20.3177C14.9509 20.1653 15.3763 20.0927 15.8084 20.0927C16.6934 20.0927 17.5509 20.4193 18.2369 21.0073L19.0396 21.6968C19.0807 21.7259 19.1288 21.7476 19.1768 21.7476H23.1214C23.3958 21.7476 23.6565 21.8638 23.8486 22.067C24.0406 22.2775 24.1504 22.5461 24.1504 22.8437C24.1504 23.4461 23.6839 23.9397 23.1145 23.9397H18.6417C18.5868 23.9397 18.5319 23.9615 18.4908 24.005L17.942 24.5857C17.8596 24.6728 17.8596 24.818 17.942 24.9051C18.0243 24.9922 18.1683 24.9922 18.2438 24.9051L18.724 24.397H26.723C26.7778 24.397 26.8327 24.3752 26.8739 24.3317L30.8048 20.1725C30.9968 19.9693 31.2575 19.8532 31.5388 19.8532C31.8132 19.8532 32.0739 19.9693 32.266 20.1725C32.458 20.3758 32.5678 20.6516 32.5678 20.9419C32.5678 21.2323 32.458 21.5081 32.266 21.7113L27.9784 26.2479C27.7657 26.4729 27.4982 26.6471 27.21 26.7342L21.3583 28.6432C20.9055 28.7884 20.4253 28.8537 19.9451 28.8247L19.2865 28.7811C19.2317 28.7739 19.1768 28.7957 19.1288 28.8392C19.0876 28.8755 19.0602 28.9336 19.0602 28.9916C19.0533 29.0497 19.0739 29.1078 19.115 29.1586C19.1562 29.2021 19.2042 29.2312 19.266 29.2384L19.9245 29.282C20.0137 29.2892 20.1098 29.2892 20.1989 29.2892C20.638 29.2892 21.0702 29.2166 21.4887 29.086L27.3404 27.177C27.6971 27.0609 28.0264 26.8504 28.2871 26.5745L32.5747 22.038C32.8491 21.7476 33 21.3557 33 20.9419C33 20.5282 32.8491 20.1435 32.5747 19.8532ZM10.3272 29.2094H7.43219V20.8621H10.3272V29.2094ZM12.2 28.3311H10.7594V21.7476H12.2V28.3311ZM24.1573 12.7906C25.1863 12.7906 26.0232 13.6762 26.0232 14.7649C26.0232 15.8537 25.1863 16.7393 24.1573 16.7393C23.1282 16.7393 22.2913 15.8537 22.2913 14.7649C22.2913 13.6762 23.1282 12.7906 24.1573 12.7906ZM20 12.7906C21.029 12.7906 21.866 13.6762 21.866 14.7649C21.866 15.8537 21.029 16.7393 20 16.7393C18.971 16.7393 18.134 15.8537 18.134 14.7649C18.134 13.6762 18.971 12.7906 20 12.7906ZM13.9768 14.7577C13.9768 13.6689 14.8137 12.7834 15.8427 12.7834C16.8718 12.7834 17.7087 13.6689 17.7087 14.7577C17.7087 15.8465 16.8718 16.732 15.8427 16.732C14.8137 16.732 13.9768 15.8465 13.9768 14.7577ZM16.5631 19.708L16.371 19.679C16.1789 19.6499 15.9868 19.6354 15.8016 19.6354C15.3214 19.6354 14.848 19.7225 14.3953 19.8895C13.9425 20.0564 13.5172 20.3032 13.1467 20.6153L12.838 20.8694V18.9386C12.838 17.9732 13.5789 17.182 14.4982 17.182H17.3383L17.0913 17.4869C16.7551 17.8861 16.5768 18.4015 16.5768 18.9386V19.708H16.5631ZM23.0047 21.2903H19.2385L18.4976 20.6516C18.086 20.2959 17.6195 20.0346 17.105 19.8604L16.9884 19.8169V18.9386C16.9884 17.9732 17.7293 17.182 18.6417 17.182H21.3446C22.257 17.182 22.9979 17.9659 22.9979 18.9386V21.2903H23.0047Z" fill="black"/>
</g>
<defs>
<clipPath id="clip0_444_2516">
<rect width="26" height="17.3333" fill="white" transform="translate(7 12.3333)"/>
</clipPath>
</defs>
</svg>
