<svg width="40" height="41" viewBox="0 0 40 41" fill="none" xmlns="http://www.w3.org/2000/svg">
<circle cx="20" cy="20.9138" r="19.5" stroke="#FC6061"/>
<path d="M30.7827 21.4686C30.7827 20.0818 30.1811 18.7646 29.1426 17.8528C28.0977 16.9409 26.7109 16.523 25.3304 16.7129L25.1341 16.7383L25.1531 16.542C25.2038 15.991 24.9315 15.3958 24.4692 15.0665L24.3679 14.9968L24.4122 14.8829C24.4502 14.7815 24.4755 14.6802 24.4755 14.5726V11.8306C24.4755 11.4697 24.3299 11.1404 24.0639 10.8997C23.8043 10.6591 23.4687 10.5388 23.1394 10.5641C22.9051 10.5831 22.7088 10.4438 22.6645 10.2285C22.4935 9.39261 21.9869 9 21.0623 9H20.0871C19.9795 9 19.8908 9.08865 19.8908 9.19631C19.8908 9.30396 19.9795 9.39261 20.0871 9.39261H21.0623C22.0185 9.39261 22.1895 9.86121 22.2718 10.2982C22.3542 10.7034 22.7341 10.9884 23.1647 10.9567C23.3864 10.9377 23.6143 11.0201 23.7916 11.1847C23.9753 11.3557 24.0766 11.5836 24.0766 11.8306V14.5662C24.0766 14.7435 23.9943 14.8512 23.9246 14.9082C23.836 14.9778 23.722 15.0158 23.589 15.0158C23.1837 15.0158 22.5948 14.6485 22.5948 13.9836C22.5948 13.8633 22.5125 13.762 22.3985 13.7303C22.2845 13.6987 22.1642 13.7557 22.1072 13.857C21.7146 14.5726 20.9737 15.0158 20.1631 15.0158H16.085C15.6417 15.0158 15.2744 14.6549 15.2744 14.2053V11.5836C15.2744 10.3741 16.256 9.39261 17.4655 9.39261H18.4217C18.5293 9.39261 18.618 9.30396 18.618 9.19631C18.618 9.08865 18.5293 9 18.4217 9H17.4655C16.0407 9 14.8818 10.1588 14.8818 11.5836V14.2053C14.8818 14.5156 15.0021 14.8132 15.2238 15.0412L15.3314 15.1551L15.2238 15.2628C14.9135 15.5731 14.7235 16.0037 14.7235 16.4153C14.7235 17.1562 15.3694 17.8148 16.199 17.9161L16.3256 17.9288L16.3383 18.0554C16.4523 19.0496 16.9842 19.9551 17.8011 20.5314L17.8644 20.5821V21.6776L17.7821 21.7219C17.7694 21.7282 17.7568 21.7346 17.0919 21.9942L16.9905 22.0322H14.8755C14.2422 22.0322 13.723 22.5515 13.723 23.1847V23.2923L13.6217 23.3303L12.9884 23.5773H12.9821C12.0259 23.9763 11 25.1034 11 26.6422V32.1831C11 32.6327 11.3673 33 11.8169 33H28.0977C28.5473 33 28.9146 32.6327 28.9146 32.1831V30.0617C28.9146 29.9541 28.826 29.8654 28.7183 29.8654C28.6107 29.8654 28.522 29.9541 28.522 30.0617V32.1831C28.522 32.4174 28.332 32.6011 28.1041 32.6011H26.8566L26.9389 32.3858C26.9769 32.2781 27.0022 32.1641 27.0022 32.0501V31.4929C27.0022 31.2966 26.8439 31.1319 26.6413 31.1319H25.9764L26.084 30.904C26.16 30.7456 26.198 30.581 26.198 30.41V26.2623L26.3436 26.2496C26.9896 26.1989 27.6101 26.028 28.1801 25.7303L28.351 25.6417L28.4017 25.8253C28.4777 26.0913 28.5157 26.3636 28.5157 26.6359V28.3963C28.5157 28.504 28.6043 28.5926 28.712 28.5926C28.8196 28.5926 28.9083 28.504 28.9083 28.3963V26.6359C28.9083 26.2686 28.845 25.895 28.7183 25.5404L28.6803 25.4264L28.7753 25.3567C30.0545 24.4512 30.7827 23.0264 30.7827 21.4686ZM16.3066 17.5488L16.1167 17.5045C15.5341 17.3778 15.1161 16.9219 15.1161 16.4153C15.1161 16.0354 15.3378 15.6237 15.6734 15.3958L15.7304 15.3578L15.8 15.3768C15.9267 15.4084 16.028 15.4084 16.1483 15.4084H16.3066V17.5488ZM23.5637 15.4211L23.7093 15.4084C23.8043 15.3958 23.9056 15.3704 23.9943 15.3261L24.0703 15.2881L24.1399 15.3261C24.6402 15.6047 24.8935 16.2887 24.6845 16.7826L24.6529 16.8522L24.5832 16.8712C24.3109 16.9536 24.0513 17.0612 23.798 17.1879L23.57 17.3082V15.4211H23.5637ZM16.7056 17.6375V15.4084H20.1631C20.8914 15.4084 21.5879 15.0982 22.0755 14.5662L22.2338 14.3953L22.3352 14.6042C22.4871 14.9145 22.7468 15.1615 23.0634 15.2945L23.0697 15.3008L23.1711 15.3388L23.1647 15.4464V17.5741L23.1014 17.6185C22.1642 18.3214 21.5183 19.3282 21.2776 20.4681L21.2586 20.5504L21.1827 20.5821C20.79 20.7467 20.3721 20.8227 19.9541 20.8227C19.3082 20.8227 18.656 20.6327 18.0924 20.2528C17.2122 19.6575 16.7056 18.7077 16.7056 17.6375ZM21.1953 21.8549L21.208 22.0259H18.1241L18.219 21.8042C18.2444 21.7409 18.257 21.6712 18.257 21.5889V20.8227L18.4787 20.9177C19.2702 21.2533 20.1821 21.3103 20.98 21.076L21.1953 21.0127L21.1827 21.2343C21.1763 21.4433 21.1763 21.6522 21.1953 21.8549ZM14.1156 23.1847C14.1156 22.7668 14.4575 22.4248 14.8755 22.4248H21.2713L21.303 22.5451C21.7779 24.6032 23.4877 26.0596 25.6597 26.2559L25.8054 26.2686V30.41C25.8054 30.7203 25.6091 31.0116 25.3114 31.1193L25.2861 31.1319H14.6349L14.6095 31.1193C14.3182 31.0053 14.1156 30.7203 14.1156 30.41V23.1847ZM25.2165 20.9177L25.4444 21.7599C25.4761 21.8929 25.5837 21.9942 25.7104 22.0259L26.5526 22.2538C26.6856 22.2918 26.8249 22.2538 26.9199 22.1588L28.4397 20.6391L28.465 20.9873C28.5283 21.9055 28.0154 22.7414 27.1605 23.1087C26.8756 23.2354 26.5779 23.2923 26.2866 23.2923C25.7104 23.2923 25.1531 23.0517 24.7288 22.5894C24.1209 21.9309 23.9879 20.981 24.3869 20.1704C24.7922 19.3536 25.6091 18.8976 26.5146 18.9799L26.8502 19.0116L25.3178 20.5441C25.2228 20.6517 25.1848 20.791 25.2165 20.9177ZM25.0898 23.3747L25.2734 23.476L23.5827 25.1668L23.475 25.0908C23.0381 24.7868 22.6581 24.4069 22.3542 23.9699L22.2782 23.8623L23.9753 22.1652L24.0829 22.3678C24.3109 22.7921 24.6655 23.1467 25.0898 23.3747ZM12.9821 32.3921L13.0644 32.6074H11.8169C11.5826 32.6074 11.3989 32.4174 11.3989 32.1894V26.6486C11.3989 25.1984 12.4311 24.2422 13.1277 23.9573L13.723 23.723V30.4164C13.723 30.5873 13.761 30.752 13.837 30.9103L13.9446 31.1383H13.2734C13.0771 31.1383 12.9124 31.2966 12.9124 31.4992V32.0565C12.9187 32.1705 12.9377 32.2844 12.9821 32.3921ZM26.6033 31.5309V32.0501C26.6033 32.3541 26.3563 32.6011 26.0587 32.6011H13.856C13.552 32.6011 13.3114 32.3541 13.3114 32.0501V31.5309H26.6033ZM28.3574 25.1731C27.6291 25.6417 26.8059 25.876 25.9764 25.876C25.3558 25.876 24.7288 25.743 24.1399 25.4707L23.931 25.3757L25.6977 23.609L25.78 23.628C26.6286 23.8053 27.5025 23.5456 28.1167 22.9377C28.731 22.3235 28.9906 21.4496 28.807 20.6074C28.7753 20.4554 28.6677 20.3414 28.522 20.2971C28.3764 20.2528 28.2244 20.2908 28.1167 20.3984L26.6476 21.8675L25.8244 21.6459L25.6027 20.8227L27.0909 19.3346C27.1985 19.2269 27.2365 19.0813 27.1922 18.9356C27.1479 18.79 27.0339 18.6823 26.8882 18.6443C26.0333 18.448 25.1531 18.695 24.5262 19.3092C23.893 19.9298 23.6333 20.7847 23.817 21.6586L23.836 21.7409L22.0692 23.5077L21.9742 23.2987C21.3473 21.9309 21.4549 20.3541 22.2718 19.0813C23.0887 17.8084 24.4755 17.0549 25.9764 17.0549C28.408 17.0549 30.3838 19.0306 30.3838 21.4623C30.3838 22.9757 29.6239 24.3625 28.3574 25.1731Z" fill="black"/>
</svg>
