<svg width="16" height="17" viewBox="0 0 16 17" fill="none" xmlns="http://www.w3.org/2000/svg">
<path d="M15.5437 12.2788L12.0437 10.7788C11.8941 10.7151 11.728 10.7016 11.5701 10.7405C11.4123 10.7794 11.2714 10.8685 11.1686 10.9944L9.61861 12.8882C7.18598 11.7413 5.22828 9.78355 4.08132 7.35092L5.97511 5.8009C6.10126 5.69829 6.19055 5.55738 6.22945 5.3995C6.26836 5.24161 6.25477 5.07535 6.19073 4.92588L4.69071 1.42582C4.62043 1.26469 4.49613 1.13314 4.33925 1.05384C4.18237 0.974545 4.00273 0.952474 3.83132 0.991436L0.58126 1.74145C0.415998 1.77961 0.26855 1.87266 0.162983 2.00542C0.0574151 2.13817 -3.80697e-05 2.30279 1.8926e-08 2.4724C1.8926e-08 10.4882 6.49699 16.9727 14.5003 16.9727C14.6699 16.9728 14.8346 16.9153 14.9674 16.8098C15.1002 16.7042 15.1933 16.5567 15.2315 16.3914L15.9815 13.1413C16.0202 12.9691 15.9977 12.7887 15.9178 12.6313C15.8379 12.4739 15.7056 12.3492 15.5437 12.2788Z" fill="white"/>
</svg>
