<svg width="20" height="21" viewBox="0 0 20 21" fill="none" xmlns="http://www.w3.org/2000/svg">
<path d="M16.6665 4.30615H3.33317C2.4165 4.30615 1.67484 5.05615 1.67484 5.97282L1.6665 15.9728C1.6665 16.8895 2.4165 17.6395 3.33317 17.6395H16.6665C17.5832 17.6395 18.3332 16.8895 18.3332 15.9728V5.97282C18.3332 5.05615 17.5832 4.30615 16.6665 4.30615ZM16.3332 7.84782L10.4415 11.5312C10.1748 11.6978 9.82484 11.6978 9.55817 11.5312L3.6665 7.84782C3.45817 7.71449 3.33317 7.48949 3.33317 7.24782C3.33317 6.68949 3.9415 6.35615 4.4165 6.64782L9.99984 10.1395L15.5832 6.64782C16.0582 6.35615 16.6665 6.68949 16.6665 7.24782C16.6665 7.48949 16.5415 7.71449 16.3332 7.84782Z" fill="white"/>
</svg>
