<svg width="24" height="25" viewBox="0 0 24 25" fill="none" xmlns="http://www.w3.org/2000/svg">
<g clip-path="url(#clip0_387_922)">
<path d="M9 11.1183H7V13.1183H9V11.1183ZM13 11.1183H11V13.1183H13V11.1183ZM17 11.1183H15V13.1183H17V11.1183ZM19 4.11829H18V2.11829H16V4.11829H8V2.11829H6V4.11829H5C3.89 4.11829 3.01 5.01829 3.01 6.11829L3 20.1183C3 21.2183 3.89 22.1183 5 22.1183H19C20.1 22.1183 21 21.2183 21 20.1183V6.11829C21 5.01829 20.1 4.11829 19 4.11829ZM19 20.1183H5V9.11829H19V20.1183Z" fill="#ED1B23"/>
</g>
<defs>
<clipPath id="clip0_387_922">
<rect width="24" height="24" fill="white" transform="translate(0 0.118286)"/>
</clipPath>
</defs>
</svg>
