<svg width="24" height="25" viewBox="0 0 24 25" fill="none" xmlns="http://www.w3.org/2000/svg">
<path d="M16.1179 8.05806C16.1863 7.8613 16.2419 7.66455 16.2762 7.46779C16.8921 3.76369 15.07 3.63537 15.07 3.63537C15.07 3.63537 14.7663 3.05367 13.9707 2.61311C13.4361 2.29659 12.6918 2.05279 11.7123 2.13406C11.3958 2.15117 11.0964 2.21105 10.8141 2.30515C10.4548 2.42491 10.1255 2.60455 9.82606 2.80986C9.45821 3.04083 9.11176 3.32741 8.80807 3.65248C8.32474 4.14437 7.89274 4.78596 7.70882 5.58153C7.55056 6.17606 7.58905 6.79627 7.71737 7.46779C7.75159 7.66455 7.80292 7.85703 7.87563 8.05806C7.51206 8.02384 7.08006 8.23342 7.4864 9.6663C7.77725 10.7142 8.051 11.0051 8.26058 11.0222C8.45306 12.2669 9.41117 13.8495 10.9895 14.4055C11.6353 14.6322 12.3454 14.6322 12.9912 14.4012C14.5439 13.8409 15.5362 12.2626 15.7287 11.0222C15.9383 11.0051 16.212 10.71 16.5071 9.6663C16.9135 8.23342 16.4815 8.02384 16.1179 8.05806Z" fill="#ED1B23"/>
<path d="M19.168 15.8855C16.9481 15.3209 15.1431 14.0505 15.1431 14.0505L13.7359 18.5032L13.4707 19.3415L13.4664 19.3287L13.2355 20.0387L12.4912 17.93C14.3176 15.3808 12.1234 15.4064 11.9993 15.4107C11.8753 15.4064 9.68106 15.3808 11.5074 17.93L10.7632 20.0387L10.5322 19.3287L10.528 19.3415L10.2628 18.5032L8.85555 14.0505C8.85555 14.0505 7.05055 15.3209 4.83065 15.8855C3.17535 16.3047 3.09408 18.2166 3.16252 19.1661C3.15397 19.1661 3.25234 20.4493 3.34644 21.0139C3.34644 21.0139 6.58005 23.114 11.9951 23.1183C17.4101 23.1183 20.6437 21.0139 20.6437 21.0139C20.742 20.4493 20.8361 19.1661 20.8361 19.1661C20.9046 18.2209 20.8233 16.3089 19.168 15.8855Z" fill="#ED1B23"/>
</svg>
