<svg width="24" height="25" viewBox="0 0 24 25" fill="none" xmlns="http://www.w3.org/2000/svg">
<path fill-rule="evenodd" clip-rule="evenodd" d="M11.6803 22.017C11.6805 22.0171 11.6807 22.0172 12.0005 21.563L11.6803 22.017ZM12.3208 22.017L12.3228 22.0156L12.3278 22.012L12.3455 21.9993C12.3607 21.9884 12.3825 21.9727 12.4105 21.9521C12.4665 21.9109 12.5473 21.8507 12.6495 21.7722C12.8537 21.6151 13.1434 21.3849 13.4901 21.0885C14.1826 20.4963 15.1066 19.6367 16.032 18.5662C17.8694 16.4406 19.7784 13.407 19.7784 9.93889C19.7784 7.86581 18.9597 5.87695 17.5015 4.41004C16.0431 2.94304 14.0644 2.11829 12.0005 2.11829C9.93668 2.11829 7.95798 2.94304 6.49958 4.41004C5.04133 5.87695 4.22266 7.86581 4.22266 9.93889C4.22266 13.407 6.13163 16.4406 7.96909 18.5662C8.8945 19.6367 9.81845 20.4963 10.511 21.0885C10.8577 21.3849 11.1474 21.6151 11.3516 21.7722C11.4538 21.8507 11.5346 21.9109 11.5906 21.9521C11.6186 21.9727 11.6404 21.9884 11.6556 21.9993L11.6733 22.012L11.6783 22.0156L11.6803 22.017C11.8721 22.1521 12.1289 22.1521 12.3208 22.017ZM12.0005 21.563L12.3208 22.017C12.3205 22.0171 12.3204 22.0172 12.0005 21.563ZM14.7784 9.89617C14.7784 11.4303 13.5347 12.674 12.0005 12.674C10.4664 12.674 9.22272 11.4303 9.22272 9.89617C9.22272 8.36204 10.4664 7.11835 12.0005 7.11835C13.5347 7.11835 14.7784 8.36204 14.7784 9.89617Z" fill="#ED1B23"/>
</svg>
