<svg width="24" height="25" viewBox="0 0 24 25" fill="none" xmlns="http://www.w3.org/2000/svg">
<g clip-path="url(#clip0_387_946)">
<path d="M10 16.1183V15.1183H3.01L3 19.1183C3 20.2283 3.89 21.1183 5 21.1183H19C20.11 21.1183 21 20.2283 21 19.1183V15.1183H14V16.1183H10ZM20 7.11829H15.99V5.11829L13.99 3.11829H9.99L7.99 5.11829V7.11829H4C2.9 7.11829 2 8.01829 2 9.11829V12.1183C2 13.2283 2.89 14.1183 4 14.1183H10V12.1183H14V14.1183H20C21.1 14.1183 22 13.2183 22 12.1183V9.11829C22 8.01829 21.1 7.11829 20 7.11829ZM14 7.11829H10V5.11829H14V7.11829Z" fill="#ED1B23"/>
</g>
<defs>
<clipPath id="clip0_387_946">
<rect width="24" height="24" fill="white" transform="translate(0 0.118286)"/>
</clipPath>
</defs>
</svg>
