<svg width="24" height="25" viewBox="0 0 24 25" fill="none" xmlns="http://www.w3.org/2000/svg">
<g clip-path="url(#clip0_387_949)">
<path d="M12 7.11829V3.11829H2V21.1183H22V7.11829H12ZM6 19.1183H4V17.1183H6V19.1183ZM6 15.1183H4V13.1183H6V15.1183ZM6 11.1183H4V9.11829H6V11.1183ZM6 7.11829H4V5.11829H6V7.11829ZM10 19.1183H8V17.1183H10V19.1183ZM10 15.1183H8V13.1183H10V15.1183ZM10 11.1183H8V9.11829H10V11.1183ZM10 7.11829H8V5.11829H10V7.11829ZM20 19.1183H12V17.1183H14V15.1183H12V13.1183H14V11.1183H12V9.11829H20V19.1183ZM18 11.1183H16V13.1183H18V11.1183ZM18 15.1183H16V17.1183H18V15.1183Z" fill="#ED1B23"/>
</g>
<defs>
<clipPath id="clip0_387_949">
<rect width="24" height="24" fill="white" transform="translate(0 0.118286)"/>
</clipPath>
</defs>
</svg>
