<svg width="24" height="25" viewBox="0 0 24 25" fill="none" xmlns="http://www.w3.org/2000/svg">
<g clip-path="url(#clip0_387_937)">
<path d="M11.8003 11.0183C9.53031 10.4283 8.80031 9.81829 8.80031 8.86829C8.80031 7.77829 9.81031 7.01829 11.5003 7.01829C13.2803 7.01829 13.9403 7.86829 14.0003 9.11829H16.2103C16.1403 7.39829 15.0903 5.81829 13.0003 5.30829V3.11829H10.0003V5.27829C8.06031 5.69829 6.50031 6.95829 6.50031 8.88829C6.50031 11.1983 8.41031 12.3483 11.2003 13.0183C13.7003 13.6183 14.2003 14.4983 14.2003 15.4283C14.2003 16.1183 13.7103 17.2183 11.5003 17.2183C9.44031 17.2183 8.63031 16.2983 8.52031 15.1183H6.32031C6.44031 17.3083 8.08031 18.5383 10.0003 18.9483V21.1183H13.0003V18.9683C14.9503 18.5983 16.5003 17.4683 16.5003 15.4183C16.5003 12.5783 14.0703 11.6083 11.8003 11.0183Z" fill="#ED1B23"/>
</g>
<defs>
<clipPath id="clip0_387_937">
<rect width="24" height="24" fill="white" transform="translate(0 0.118286)"/>
</clipPath>
</defs>
</svg>
