<svg width="295" height="85" viewBox="0 0 295 85" fill="none" xmlns="http://www.w3.org/2000/svg">
<g clip-path="url(#clip0_191_1640)">
<path d="M19.3067 5.31689C19.3638 5.45668 19.4886 5.3946 19.5833 5.40242C24.4033 5.80615 28.3655 7.81696 31.3221 11.719C33.0748 14.0319 34.1882 16.646 34.9331 19.4353C35.384 21.1243 35.63 22.8481 35.8582 24.5789C36.2711 27.7103 37.0804 30.7295 38.6049 33.5161C40.434 36.8594 43.0751 39.3273 46.5617 40.8645C48.5238 41.7294 50.5751 42.2831 52.6849 42.6261C56.1039 43.1825 59.457 43.9821 62.6404 45.3887C64.63 46.2679 66.4727 47.3857 68.1179 48.8282C70.3288 50.7664 71.8176 53.1542 72.6 55.9881C73.8611 60.5574 73.4107 64.986 71.2945 69.1924C68.871 74.01 64.9423 76.9851 59.74 78.2744C57.8007 78.7549 55.8281 78.8924 53.8445 78.7255C50.2212 78.4206 46.8608 77.3607 43.991 75.0271C41.3512 72.8807 39.6219 70.1286 38.6941 66.851C38.2112 65.1455 38.0182 63.4032 37.9227 61.6421C37.8459 60.2208 37.812 58.7972 37.6835 57.3786C37.1874 51.9003 34.7561 47.5692 30.1419 44.5431C27.9882 43.1305 25.6109 42.2596 23.1097 41.7032C21.3552 41.3128 19.5742 41.0779 17.8023 40.7919C14.6385 40.2814 11.6699 39.2418 8.94832 37.5368C5.65421 35.4735 3.05468 32.7638 1.43917 29.1749C0.744135 27.6303 0.317968 26.0085 0.182618 24.3122C0.156555 23.9816 0.163871 23.64 0.0170898 23.3277C0.0170898 22.9295 0.0170898 22.5313 0.0170898 22.1331C0.107628 22.0522 0.0929952 21.9391 0.105799 21.8347C0.205024 21.0461 0.259896 20.252 0.429082 19.473C1.26221 15.6307 3.13561 12.3858 6.02825 9.7519C8.94878 7.09365 12.3865 5.6282 16.3322 5.40058C16.4149 5.39598 16.5197 5.43599 16.564 5.31689C17.4785 5.31689 18.3926 5.31689 19.3067 5.31689Z" fill="#ED1B23"/>
<path d="M103.05 18.5533C103.691 17.6874 104.253 16.8147 104.869 15.9773C107.003 13.0749 109.547 10.6259 112.661 8.79763C115.171 7.32344 117.869 6.37574 120.726 5.86993C123.551 5.3701 126.392 5.31033 129.238 5.61289C132.044 5.91132 134.738 6.62726 137.258 7.93454C140.218 9.46989 142.595 11.6591 144.469 14.4158C145.985 16.6464 147.063 19.0834 147.833 21.663C148.735 24.6818 149.201 27.7755 149.41 30.9152C149.504 32.3218 149.542 33.7297 149.543 35.1382C149.546 49.3647 149.545 63.5916 149.545 77.8181C149.545 77.9253 149.553 78.0333 149.542 78.1395C149.52 78.3695 149.396 78.4922 149.164 78.5152C149.058 78.5258 148.951 78.518 148.844 78.518C145.447 78.518 142.049 78.518 138.652 78.518C138.545 78.518 138.437 78.5263 138.332 78.5143C138.092 78.4876 137.986 78.3764 137.968 78.1313C137.959 78.0094 137.966 77.8862 137.966 77.7639C137.966 64.8083 137.964 51.8528 137.968 38.8973C137.969 36.6763 137.939 34.4567 137.683 32.2477C137.351 29.3646 136.782 26.5386 135.59 23.8716C134.731 21.9509 133.591 20.2335 132.015 18.825C130.324 17.315 128.353 16.3668 126.155 15.8959C122.858 15.1896 119.588 15.312 116.367 16.336C113.96 17.1011 111.859 18.3988 110.031 20.1374C106.578 23.4219 104.481 27.4495 103.581 32.1259C103.2 34.1022 103.047 36.0965 103.048 38.1073C103.051 51.3079 103.049 64.5085 103.049 77.7092C103.049 77.8011 103.05 77.8931 103.049 77.9846C103.042 78.4191 102.948 78.5171 102.505 78.5171C99.0165 78.5189 95.5276 78.5184 92.0391 78.5171C91.5682 78.5171 91.4744 78.421 91.4689 77.9598C91.4671 77.8218 91.4689 77.6843 91.4689 77.5464C91.4689 54.3303 91.4698 31.1147 91.4644 7.89868C91.4644 7.14594 91.543 7.10824 92.265 7.11008C95.6318 7.11927 98.9986 7.11422 102.366 7.11422C102.488 7.11422 102.611 7.10364 102.731 7.12111C102.915 7.14778 103.035 7.25538 103.047 7.45265C103.055 7.57496 103.05 7.69773 103.05 7.82005C103.05 11.2503 103.05 14.6806 103.05 18.1109C103.05 18.259 103.05 18.4061 103.05 18.5533Z" fill="white"/>
<path d="M221.681 14.8952C221.681 16.6871 221.681 18.4786 221.681 20.2705C221.681 20.3625 221.685 20.4544 221.68 20.546C221.662 20.8867 221.412 21.0233 221.127 20.8379C220.629 20.5128 220.145 20.168 219.643 19.8489C217.328 18.376 214.862 17.2329 212.224 16.4843C209.434 15.6921 206.588 15.3573 203.687 15.4929C201.546 15.5932 199.451 15.9353 197.411 16.597C193.196 17.9631 189.793 20.4986 187.017 23.9247C184.269 27.3164 182.575 31.2033 181.674 35.4613C180.918 39.0359 180.74 42.6525 180.961 46.2878C181.15 49.3999 181.678 52.4559 182.751 55.3965C184.546 60.3125 187.537 64.2743 192.009 67.0342C193.971 68.2444 196.102 69.0454 198.347 69.5434C201.291 70.1959 204.264 70.3182 207.25 69.9812C210.662 69.5963 213.861 68.5102 216.872 66.8594C218.291 66.0814 219.642 65.1972 220.931 64.2173C221.046 64.1299 221.14 64.0163 221.33 64.1078C221.527 64.2026 221.533 64.3405 221.533 64.5166C221.531 67.9621 221.528 71.408 221.538 74.8535C221.539 75.1096 221.441 75.2291 221.238 75.3515C218.236 77.1595 215.018 78.4162 211.61 79.1924C207.947 80.026 204.237 80.278 200.492 80.1341C197.341 80.0131 194.255 79.5207 191.246 78.5702C186.766 77.1558 182.838 74.8052 179.467 71.5239C176.085 68.2311 173.512 64.3883 171.771 59.9828C170.349 56.3842 169.545 52.6476 169.22 48.7989C168.932 45.4013 168.981 42.0055 169.327 38.6166C169.766 34.331 170.732 30.1737 172.43 26.2045C174.609 21.1097 177.79 16.7565 182.023 13.1952C185.26 10.4717 188.911 8.50178 192.94 7.23359C196.347 6.16128 199.835 5.61823 203.398 5.48074C205.289 5.40809 207.176 5.43522 209.059 5.59156C213.218 5.93643 217.221 6.89378 221.022 8.66134C221.505 8.88574 221.716 9.12714 221.698 9.70468C221.648 11.4332 221.681 13.1649 221.681 14.8952Z" fill="white"/>
<path d="M291.099 14.8986C291.099 16.7057 291.099 18.5128 291.099 20.3199C291.099 20.4119 291.104 20.5039 291.098 20.5954C291.08 20.9053 290.867 21.0235 290.609 20.8474C290.004 20.4353 289.399 20.0256 288.776 19.6408C286.507 18.2397 284.099 17.1513 281.532 16.4395C278.752 15.6688 275.92 15.3502 273.034 15.4987C270.445 15.632 267.933 16.1194 265.52 17.0865C262.617 18.2498 260.115 20.0086 257.949 22.2595C254.48 25.8645 252.327 30.1689 251.231 35.0375C250.47 38.4209 250.269 41.8475 250.39 45.3036C250.491 48.1761 250.879 51.0035 251.683 53.7657C252.87 57.8416 254.893 61.4208 257.976 64.3577C260.56 66.8196 263.592 68.4681 267.039 69.3579C269.431 69.9754 271.863 70.1966 274.326 70.1432C279.213 70.0375 283.682 68.5592 287.819 65.9906C288.701 65.4434 289.553 64.8534 290.381 64.2294C290.512 64.1315 290.613 64.0097 290.821 64.1177C291.023 64.223 291.001 64.3752 291.001 64.5398C291.002 67.2965 291.002 70.0531 291.002 72.8098C291.002 73.499 290.995 74.1883 291.007 74.8771C291.01 75.0859 290.945 75.2091 290.765 75.3176C287.857 77.0664 284.75 78.3171 281.455 79.1029C277.589 80.0253 273.668 80.2971 269.707 80.1233C265.905 79.9564 262.216 79.2487 258.671 77.8439C253.56 75.8198 249.375 72.5513 245.976 68.2405C242.991 64.4538 240.978 60.1904 239.796 55.5139C238.598 50.7778 238.34 45.9685 238.601 41.1123C238.776 37.8475 239.241 34.6278 240.085 31.4693C241.523 26.0829 243.97 21.2239 247.624 17.0028C250.852 13.2736 254.694 10.3795 259.219 8.41923C261.659 7.36209 264.192 6.62086 266.806 6.13712C270.375 5.47681 273.973 5.30668 277.588 5.52234C281.875 5.77846 286.023 6.66362 289.961 8.43256C290.253 8.56361 290.535 8.71627 290.831 8.83537C291.051 8.92412 291.106 9.06574 291.104 9.29289C291.094 10.6558 291.099 12.0187 291.099 13.3816C291.099 13.8879 291.099 14.3933 291.099 14.8986Z" fill="white"/>
<path d="M31.3373 63.7401C31.2326 67.7167 29.6249 71.6578 26.2 74.7667C23.9173 76.8387 21.2245 78.0977 18.1833 78.5713C14.6207 79.1254 11.2169 78.597 8.08191 76.7968C4.0228 74.4664 1.45939 70.9755 0.43238 66.3726C0.29886 65.7748 0.2321 65.166 0.186831 64.5545C0.138818 63.9015 -0.0692356 63.2564 0.0226739 62.5979C0.233471 61.0865 0.40906 59.5709 0.935368 58.1183C1.93768 55.3502 3.53947 53.0097 5.78005 51.1166C7.47009 49.6884 9.38602 48.6901 11.5255 48.1204C12.7963 47.7819 14.0816 47.5447 15.3953 47.5235C17.0186 47.4973 18.6136 47.7263 20.165 48.2132C23.3302 49.2065 25.9851 50.9708 28.0674 53.5748C29.2147 55.0094 30.0355 56.617 30.5851 58.3772C31.068 59.9254 31.3272 61.4989 31.3373 63.7401Z" fill="#ED1B23"/>
<path d="M42.0215 20.86C42.0274 18.9421 42.3493 17.0825 43.0732 15.3039C44.7024 11.3016 47.4441 8.35324 51.3725 6.56222C53.0246 5.80903 54.7713 5.43795 56.5926 5.38507C57.706 5.35288 58.814 5.35702 59.9201 5.48393C62.168 5.7419 64.2288 6.52452 66.1251 7.75179C69.373 9.85364 71.4929 12.8025 72.6191 16.4999C73.2671 18.6271 73.4532 20.7938 73.1431 22.9913C72.5784 26.9968 70.7599 30.3117 67.635 32.8812C65.4081 34.7122 62.8712 35.8714 60.033 36.3436C58.5661 36.5878 57.0942 36.5565 55.6191 36.3703C52.8174 36.0162 50.3034 34.9734 48.0866 33.2228C45.4747 31.16 43.6507 28.5404 42.6617 25.3451C42.2862 24.1326 42.0782 22.651 42.0215 20.86Z" fill="#ED1B23"/>
</g>
<defs>
<clipPath id="clip0_191_1640">
<rect width="295" height="84.9728" fill="white"/>
</clipPath>
</defs>
</svg>
