<svg width="160" height="41" viewBox="0 0 160 41" fill="none" xmlns="http://www.w3.org/2000/svg">
<path d="M9.28567 2.55719C9.31316 2.62442 9.37319 2.59456 9.41871 2.59832C11.7368 2.79248 13.6423 3.75954 15.0642 5.63615C15.9071 6.74849 16.4426 8.00568 16.8008 9.34713C17.0177 10.1594 17.136 10.9884 17.2457 11.8208C17.4443 13.3268 17.8335 14.7788 18.5667 16.1189C19.4464 17.7269 20.7166 18.9137 22.3934 19.653C23.337 20.069 24.3235 20.3352 25.3382 20.5002C26.9824 20.7678 28.595 21.1523 30.126 21.8288C31.0829 22.2516 31.9691 22.7892 32.7603 23.483C33.8236 24.4151 34.5396 25.5635 34.9159 26.9264C35.5224 29.1238 35.3058 31.2537 34.288 33.2767C33.1225 35.5936 31.2331 37.0244 28.7312 37.6444C27.7985 37.8755 26.8498 37.9417 25.8959 37.8614C24.1533 37.7148 22.5372 37.205 21.157 36.0827C19.8875 35.0504 19.0558 33.7269 18.6096 32.1506C18.3774 31.3304 18.2846 30.4925 18.2386 29.6455C18.2017 28.962 18.1854 28.2773 18.1236 27.5951C17.885 24.9604 16.7157 22.8775 14.4966 21.4221C13.4609 20.7428 12.3176 20.3239 11.1147 20.0564C10.2709 19.8686 9.41431 19.7556 8.56216 19.6181C7.04061 19.3726 5.61296 18.8726 4.30406 18.0526C2.71983 17.0603 1.46965 15.7571 0.692707 14.0311C0.358445 13.2883 0.153489 12.5084 0.0883963 11.6926C0.0758614 11.5336 0.07938 11.3692 0.00878906 11.2191C0.00878906 11.0276 0.00878906 10.8361 0.00878906 10.6446C0.0523311 10.6056 0.045294 10.5512 0.0514515 10.501C0.0991718 10.1218 0.125561 9.73988 0.206927 9.36526C0.607602 7.5174 1.50857 5.9568 2.89972 4.6901C4.30428 3.41168 5.95756 2.7069 7.85516 2.59744C7.89496 2.59523 7.94532 2.61447 7.96665 2.55719C8.40647 2.55719 8.84607 2.55719 9.28567 2.55719Z" fill="#ED1B23"/>
<path d="M49.5601 8.92303C49.8682 8.50662 50.1389 8.0869 50.4349 7.6842C51.461 6.28835 52.6848 5.11055 54.1822 4.23129C55.3895 3.52231 56.6872 3.06654 58.0612 2.82328C59.4195 2.5829 60.7861 2.55415 62.1546 2.69966C63.5039 2.84318 64.7996 3.1875 66.0118 3.81621C67.4352 4.5546 68.5786 5.60746 69.4797 6.9332C70.209 8.00596 70.7271 9.17801 71.0976 10.4186C71.5313 11.8704 71.7554 13.3583 71.8559 14.8682C71.9009 15.5447 71.9196 16.2218 71.9199 16.8992C71.9214 23.7411 71.9207 30.5832 71.9207 37.4251C71.9207 37.4766 71.9247 37.5286 71.9196 37.5797C71.9086 37.6903 71.8493 37.7493 71.7376 37.7604C71.6868 37.7655 71.6351 37.7617 71.5838 37.7617C69.9499 37.7617 68.316 37.7617 66.6821 37.7617C66.6308 37.7617 66.5789 37.7657 66.5283 37.7599C66.4129 37.7471 66.3619 37.6936 66.3531 37.5757C66.3487 37.5171 66.3522 37.4579 66.3522 37.399C66.3522 31.1684 66.3511 24.9377 66.3531 18.707C66.3535 17.6389 66.339 16.5714 66.2163 15.5091C66.0564 14.1225 65.7828 12.7634 65.2095 11.4808C64.7966 10.5571 64.2483 9.73109 63.4901 9.05373C62.6771 8.3275 61.7293 7.87151 60.6721 7.64506C59.0864 7.30538 57.5138 7.36421 55.9646 7.85669C54.8072 8.22467 53.7965 8.84873 52.9173 9.68487C51.2567 11.2645 50.2484 13.2015 49.8154 15.4505C49.6325 16.4009 49.5588 17.36 49.559 18.3271C49.5606 24.6756 49.5597 31.0242 49.5597 37.3727C49.5597 37.4169 49.5603 37.4612 49.5597 37.5052C49.5564 37.7142 49.5111 37.7613 49.2982 37.7613C47.6203 37.7621 45.9424 37.7619 44.2647 37.7613C44.0382 37.7613 43.9931 37.715 43.9905 37.4932C43.9896 37.4269 43.9905 37.3608 43.9905 37.2944C43.9905 26.1292 43.9909 14.9642 43.9883 3.79896C43.9883 3.43695 44.0261 3.41881 44.3733 3.4197C45.9925 3.42412 47.6117 3.42169 49.2311 3.42169C49.2896 3.42169 49.3492 3.4166 49.4066 3.42501C49.4953 3.43783 49.5531 3.48958 49.5588 3.58445C49.5623 3.64327 49.5599 3.70232 49.5599 3.76114C49.5599 5.41086 49.5599 7.06058 49.5599 8.7103C49.5601 8.7815 49.5601 8.85227 49.5601 8.92303Z" fill="black"/>
<path d="M106.612 7.16329C106.612 8.02508 106.612 8.88665 106.612 9.74844C106.612 9.79267 106.614 9.8369 106.612 9.8809C106.603 10.0448 106.483 10.1104 106.346 10.0213C106.106 9.86498 105.873 9.69913 105.632 9.54565C104.519 8.83734 103.333 8.28758 102.064 7.92756C100.722 7.54653 99.3535 7.38554 97.9584 7.45078C96.929 7.49899 95.9211 7.66352 94.9399 7.98174C92.913 8.63875 91.2766 9.85813 89.9416 11.5059C88.6199 13.137 87.8052 15.0063 87.3717 17.0541C87.008 18.7732 86.9227 20.5125 87.0289 22.2609C87.1197 23.7576 87.3737 25.2273 87.8898 26.6415C88.753 29.0057 90.1916 30.9111 92.3423 32.2383C93.2855 32.8204 94.3105 33.2056 95.3905 33.4451C96.806 33.7589 98.2361 33.8177 99.6719 33.6556C101.313 33.4705 102.851 32.9482 104.299 32.1543C104.982 31.7801 105.632 31.3549 106.251 30.8836C106.307 30.8416 106.352 30.787 106.443 30.831C106.538 30.8766 106.541 30.9429 106.541 31.0276C106.54 32.6846 106.539 34.3418 106.544 35.9989C106.544 36.122 106.497 36.1795 106.399 36.2384C104.955 37.1079 103.408 37.7123 101.769 38.0856C100.007 38.4865 98.2231 38.6077 96.4216 38.5385C94.9062 38.4803 93.4225 38.2435 91.9751 37.7864C89.8208 37.1061 87.9314 35.9756 86.3104 34.3976C84.6838 32.814 83.4465 30.9659 82.6091 28.8471C81.9252 27.1165 81.5388 25.3195 81.3823 23.4685C81.2439 21.8345 81.2672 20.2014 81.4339 18.5716C81.6448 16.5105 82.1093 14.5112 82.926 12.6023C83.9741 10.152 85.504 8.05847 87.5395 6.34573C89.0965 5.03591 90.852 4.08854 92.7901 3.47863C94.4284 2.96292 96.1061 2.70176 97.8194 2.63563C98.7289 2.60069 99.6363 2.61374 100.542 2.68893C102.542 2.85479 104.467 3.3152 106.295 4.16527C106.527 4.27319 106.629 4.38929 106.621 4.66704C106.596 5.49832 106.612 6.33114 106.612 7.16329Z" fill="black"/>
<path d="M139.998 7.16509C139.998 8.03418 139.998 8.90326 139.998 9.77235C139.998 9.81658 140 9.86081 139.997 9.90482C139.988 10.0539 139.886 10.1107 139.762 10.026C139.471 9.82786 139.18 9.63082 138.88 9.44573C137.789 8.77191 136.631 8.24846 135.396 7.90614C134.059 7.5355 132.697 7.38225 131.31 7.45368C130.064 7.51781 128.856 7.75222 127.696 8.21728C126.299 8.77677 125.096 9.62264 124.055 10.7051C122.386 12.4389 121.351 14.509 120.824 16.8504C120.458 18.4776 120.361 20.1256 120.419 21.7877C120.468 23.1691 120.655 24.5289 121.041 25.8573C121.612 27.8175 122.585 29.5389 124.068 30.9513C125.31 32.1353 126.769 32.9281 128.426 33.356C129.576 33.653 130.746 33.7594 131.931 33.7337C134.281 33.6829 136.43 32.9719 138.42 31.7366C138.844 31.4734 139.254 31.1897 139.652 30.8896C139.715 30.8425 139.764 30.7839 139.864 30.8359C139.961 30.8865 139.95 30.9597 139.95 31.0389C139.951 32.3646 139.951 33.6904 139.951 35.0161C139.951 35.3476 139.947 35.6791 139.953 36.0104C139.955 36.1108 139.923 36.1701 139.837 36.2222C138.438 37.0632 136.944 37.6648 135.359 38.0427C133.5 38.4863 131.614 38.617 129.709 38.5334C127.881 38.4531 126.107 38.1128 124.402 37.4372C121.944 36.4637 119.931 34.8919 118.297 32.8187C116.861 30.9975 115.893 28.9471 115.324 26.6981C114.748 24.4203 114.624 22.1074 114.75 19.7719C114.834 18.2018 115.058 16.6534 115.463 15.1344C116.155 12.5439 117.332 10.2071 119.089 8.17704C120.642 6.38358 122.489 4.99171 124.665 4.04898C125.839 3.54058 127.057 3.18409 128.314 2.95145C130.031 2.63389 131.761 2.55207 133.5 2.65579C135.562 2.77896 137.556 3.20466 139.45 4.05539C139.59 4.11842 139.726 4.19184 139.868 4.24911C139.974 4.29179 140.001 4.35991 140 4.46915C139.995 5.12461 139.997 5.78008 139.997 6.43554C139.998 6.67902 139.998 6.92206 139.998 7.16509Z" fill="black"/>
<path d="M15.071 30.6544C15.0206 32.5668 14.2474 34.4622 12.6003 35.9573C11.5025 36.9538 10.2074 37.5593 8.74482 37.7871C7.0315 38.0535 5.3945 37.7994 3.8868 36.9337C1.93466 35.8129 0.701851 34.134 0.207934 31.9204C0.14372 31.6329 0.111614 31.3401 0.0898427 31.046C0.0667522 30.732 -0.0333066 30.4217 0.0108952 30.105C0.112273 29.3781 0.196719 28.6493 0.449834 27.9507C0.931876 26.6194 1.70222 25.4938 2.77977 24.5833C3.59256 23.8965 4.51398 23.4164 5.54294 23.1424C6.15406 22.9796 6.77223 22.8655 7.40403 22.8553C8.18471 22.8427 8.95175 22.9529 9.6979 23.1871C11.2201 23.6647 12.4969 24.5132 13.4984 25.7656C14.0501 26.4555 14.4449 27.2286 14.7092 28.0752C14.9414 28.8198 15.0661 29.5765 15.071 30.6544Z" fill="#ED1B23"/>
<path d="M20.209 10.0319C20.2118 9.10948 20.3667 8.21518 20.7148 7.3598C21.4983 5.43498 22.8169 4.01702 24.7061 3.15568C25.5007 2.79345 26.3407 2.61498 27.2166 2.58955C27.7521 2.57407 28.2849 2.57606 28.8169 2.6371C29.898 2.76116 30.8891 3.13754 31.8011 3.72777C33.3631 4.73861 34.3826 6.15679 34.9242 7.93499C35.2358 8.958 35.3253 10 35.1762 11.0569C34.9046 12.9832 34.0301 14.5774 32.5272 15.8132C31.4563 16.6938 30.2362 17.2513 28.8712 17.4784C28.1657 17.5958 27.4579 17.5808 26.7484 17.4912C25.401 17.3209 24.192 16.8194 23.1259 15.9775C21.8697 14.9854 20.9925 13.7256 20.5169 12.1889C20.3363 11.6057 20.2363 10.8932 20.209 10.0319Z" fill="#ED1B23"/>
</svg>
