<svg width="24" height="25" viewBox="0 0 24 25" fill="none" xmlns="http://www.w3.org/2000/svg">
<path fill-rule="evenodd" clip-rule="evenodd" d="M3 7.91382C3 5.70468 4.79086 3.91382 7 3.91382H11C11.5523 3.91382 12 4.36153 12 4.91382C12 5.4661 11.5523 5.91382 11 5.91382H7C5.89543 5.91382 5 6.80925 5 7.91382V17.9138C5 19.0184 5.89543 19.9138 7 19.9138H17C18.1046 19.9138 19 19.0184 19 17.9138V13.9138C19 13.3615 19.4477 12.9138 20 12.9138C20.5523 12.9138 21 13.3615 21 13.9138V17.9138C21 20.123 19.2091 21.9138 17 21.9138H7C4.79086 21.9138 3 20.123 3 17.9138V7.91382Z" fill="#333333" stroke="white" stroke-linecap="round" stroke-linejoin="round"/>
<path opacity="0.986784" d="M17 2.91382C16.735 2.91382 16.469 3.00782 16.281 3.19482C14.781 4.69482 14.781 4.69482 14.281 5.19482L7.28101 12.1948C7.09401 12.3828 7 12.6488 7 12.9138V16.9138C7 17.4658 7.448 17.9138 8 17.9138C8.5 17.9138 11.5 17.9138 12 17.9138C12.265 17.9138 12.531 17.8198 12.719 17.6328L19.719 10.6328C20.219 10.1328 20.219 10.1328 21.719 8.63281C21.906 8.44481 22 8.17882 22 7.91382C22 6.27782 21.583 5.10883 20.719 4.22583C19.846 3.33583 18.681 2.91382 17 2.91382ZM17.407 4.9328C18.309 4.9858 18.88 5.19181 19.281 5.60181C19.691 6.01981 19.927 6.65083 19.982 7.53583C19.493 8.02483 19.19 8.31483 19.004 8.50183C18.211 7.70983 17.205 6.7128 16.413 5.9198C16.6 5.7328 16.918 5.4218 17.407 4.9328ZM15.002 7.33984L17.587 9.91785L11.562 15.9138C10.93 15.9138 9.921 15.9138 9 15.9138V13.3518L15.002 7.33984Z" fill="#333333" stroke="white"/>
</svg>
