<svg width="24" height="25" viewBox="0 0 24 25" fill="none" xmlns="http://www.w3.org/2000/svg">
<path d="M8.4688 14.2263C5.8545 14.9408 4 17.214 4 19.9138V21.9138C4 22.4661 4.4477 22.9138 5 22.9138H19C19.5523 22.9138 20 22.4661 20 21.9138V19.9138C20 17.214 18.1455 14.9408 15.5312 14.2263C15.3071 14.165 15.0869 14.1933 14.875 14.2888C13.9595 14.7014 12.9849 14.9138 12 14.9138C11.0151 14.9138 10.0405 14.7014 9.125 14.2888C8.9131 14.1933 8.6929 14.165 8.4688 14.2263ZM8.875 16.2263C9.8848 16.6082 10.9197 16.9138 12 16.9138C13.0803 16.9138 14.1152 16.6082 15.125 16.2263C16.8284 16.7423 18 18.1802 18 19.9138V20.9138H6V19.9138C6 18.1802 7.1716 16.7423 8.875 16.2263Z" fill="#333333" stroke="white"/>
<path d="M12 2.91382C9.2386 2.91382 7 5.15242 7 7.91382C7 10.6752 9.2386 12.9138 12 12.9138C14.7614 12.9138 17 10.6752 17 7.91382C17 5.15242 14.7614 2.91382 12 2.91382ZM12 4.91382C13.6569 4.91382 15 6.25692 15 7.91382C15 9.57072 13.6569 10.9138 12 10.9138C10.3431 10.9138 9 9.57072 9 7.91382C9 6.25692 10.3431 4.91382 12 4.91382Z" fill="#333333" stroke="white"/>
</svg>
