<svg width="167" height="30" viewBox="0 0 167 30" fill="none" xmlns="http://www.w3.org/2000/svg">
<g clip-path="url(#clip0_1922_925)">
<path d="M131.445 13.5973C131.157 13.3538 130.85 13.1341 130.526 12.9405C130.67 12.8666 130.803 12.7729 130.921 12.662C131.578 12.0135 132.026 11.1828 132.206 10.2772C132.386 9.37164 132.29 8.43286 131.931 7.58229C131.62 6.71431 131.072 5.95049 130.351 5.37689C129.629 4.8033 128.761 4.44272 127.845 4.33579C126.215 4.17058 124.578 4.09702 122.94 4.11547C121.406 4.08637 119.864 4.11547 118.301 4.11547V22.3557H127.167C128.652 22.4046 130.112 21.9666 131.324 21.1087C131.896 20.6681 132.361 20.1043 132.685 19.4591C133.009 18.8138 133.183 18.1039 133.195 17.382C133.207 16.6602 133.055 15.945 132.752 15.2897C132.449 14.6344 132.002 14.0559 131.445 13.5973ZM121.668 7.59476H126.785C127.343 7.59476 127.878 7.81636 128.272 8.21082C128.667 8.60528 128.888 9.14028 128.888 9.69812C128.888 10.256 128.667 10.791 128.272 11.1854C127.878 11.5799 127.343 11.8015 126.785 11.8015H121.672L121.668 7.59476ZM127.413 19.3503H121.668V14.9233H127.413C127.717 14.9004 128.023 14.9407 128.312 15.0415C128.6 15.1424 128.865 15.3017 129.089 15.5095C129.312 15.7173 129.491 15.969 129.613 16.2491C129.736 16.5291 129.799 16.8313 129.799 17.1368C129.799 17.4423 129.736 17.7445 129.613 18.0246C129.491 18.3046 129.312 18.5564 129.089 18.7641C128.865 18.9719 128.6 19.1312 128.312 19.2321C128.023 19.333 127.717 19.3732 127.413 19.3503Z" fill="white"/>
<path d="M54.957 8.52985H58.2825V10.1011C58.2825 10.1011 59.6085 8.52985 61.2671 8.52985H66.326L70.3374 17.6749L73.904 8.48828H77.4165C77.4165 8.48828 73.4342 18.4024 71.7632 22.4595C71.3475 23.4987 70.8487 24.5379 69.9549 25.2653C68.2008 26.687 65.2577 26.6122 63.3622 25.2404C63.7779 24.3009 64.2559 23.1204 64.6092 22.3306C65.3076 22.7463 67.5731 24.2469 68.604 21.7611C68.6013 21.6265 68.5641 21.4948 68.4959 21.3787C67.1103 18.3525 65.7247 15.3291 64.339 12.3084C64.2808 12.1796 64.1603 11.9634 64.1603 11.9634C64.1603 11.9634 61.766 11.7805 60.6769 12.3126C58.9351 13.1689 58.2867 14.657 58.2908 16.4694C58.2908 18.4273 58.2908 20.3312 58.2908 22.3306H54.9653L54.957 8.52985Z" fill="white"/>
<path d="M149.702 4.09863H153.048V13.0192L161.628 4.09863H166.275C166.275 4.09863 160.838 9.74364 158.198 12.4331C160.838 15.7586 166.275 22.3347 166.275 22.3347H161.852L155.883 14.9522L153.044 17.6915V22.3389H149.693L149.702 4.09863Z" fill="white"/>
<path d="M91.9662 14.0794C91.459 10.5252 88.9524 8.25977 85.4108 8.25977C82.7961 8.25977 81.5283 9.66894 81.5283 9.66894V8.51333H78.2402V26.1966H81.5283V21.4162C81.7486 21.5451 81.8692 21.6116 81.9814 21.6864C83.3781 22.5953 85.0725 22.9282 86.7093 22.6151C88.3461 22.302 89.798 21.3673 90.7607 20.007C92.0244 18.1946 92.2821 16.1994 91.9662 14.0794ZM85.1115 19.4833C83.1328 19.4833 81.5283 17.6667 81.5283 15.4303C81.5283 13.1939 83.1328 11.3774 85.1115 11.3774C87.0902 11.3774 88.6947 13.1939 88.6947 15.4303C88.6947 17.6667 87.0902 19.4791 85.1115 19.4791V19.4833Z" fill="white"/>
<path d="M51.7238 16.8853L53.8687 19.1508C52.297 21.1307 50.0051 22.4076 47.4943 22.702C44.9836 22.9965 42.4584 22.2846 40.4712 20.7221C36.3933 17.3966 36.094 10.7457 39.7853 6.82577C43.1898 3.20515 50.0735 3.00977 53.8563 7.47008L51.624 9.88521C51.2084 9.53603 50.8467 9.19933 50.4518 8.88341C49.4945 8.05076 48.3162 7.51361 47.0598 7.33706C45.8259 7.19153 44.5782 7.45201 43.5056 8.07906C42.4331 8.70611 41.594 9.66558 41.1155 10.8122C40.6343 11.9735 40.4891 13.2467 40.6963 14.4865C40.9036 15.7264 41.455 16.8831 42.2878 17.8248C43.2392 18.8037 44.5072 19.4132 45.8659 19.5449C47.2246 19.6766 48.586 19.3219 49.7077 18.5439C50.2011 18.1833 50.6756 17.7976 51.1294 17.3883C51.3289 17.2304 51.516 17.0599 51.7238 16.8853Z" fill="white"/>
<path d="M147.902 19.2379V22.3389H135.215V4.09863H138.54V19.2379H147.902Z" fill="white"/>
<path d="M101.154 18.8179C101.569 19.5163 102.068 20.3892 102.521 21.1666C101.795 21.8508 100.901 22.3308 99.929 22.5579C98.9573 22.7849 97.9428 22.7509 96.9885 22.4593C95.3798 22.0062 94.4445 20.6054 94.4404 18.8138C94.4404 16.7354 94.4404 12.1296 94.4404 11.8012H92.7402V8.50894H94.4404V4.79688H97.7201V8.50894H101.644V11.8012H97.7243C97.7243 11.8012 97.7243 16.4194 97.7243 18.2152C97.7243 19.1837 98.1649 19.6784 99.1459 19.5537C99.8529 19.4271 100.532 19.1781 101.154 18.8179Z" fill="white"/>
<path d="M116.42 15.4922C116.42 16.9244 115.995 18.3244 115.2 19.5152C114.404 20.706 113.273 21.6342 111.95 22.1822C110.627 22.7303 109.171 22.8737 107.766 22.5943C106.361 22.3149 105.071 21.6252 104.058 20.6125C103.046 19.5998 102.356 18.3096 102.077 16.9049C101.797 15.5002 101.941 14.0443 102.489 12.7211C103.037 11.3979 103.965 10.267 105.156 9.47135C106.347 8.67567 107.747 8.25098 109.179 8.25098C110.13 8.25043 111.072 8.43736 111.95 8.80107C112.829 9.16478 113.628 9.69815 114.3 10.3707C114.973 11.0432 115.506 11.8417 115.87 12.7205C116.234 13.5993 116.421 14.5411 116.42 15.4922ZM109.179 11.5432C107.1 11.5432 105.388 13.3556 105.388 15.592C105.388 17.8284 107.088 19.6449 109.179 19.6449C111.27 19.6449 112.974 17.8325 112.974 15.592C112.974 13.3514 111.274 11.5432 109.179 11.5432Z" fill="white"/>
<path d="M14.1122 18.9845V21.8361L2.24023 14.9815V12.1299L14.1122 18.9845Z" fill="white"/>
<path d="M14.1122 24.5507V27.4023L2.24023 20.5476V17.7002L14.1122 24.5507Z" fill="white"/>
<path d="M18.6855 11.0654L21.1547 9.63965L21.1589 23.3489L18.6897 24.7747L18.6855 11.0654Z" fill="white"/>
<path d="M23.5078 8.28029L25.977 6.85449V20.5679L23.5078 21.9896V8.28029Z" fill="white"/>
<path d="M28.2292 5.55764L25.7559 4.13184L11.6433 12.2793L0 5.55764V8.40924L14.1125 16.5567V29.9999L16.5858 28.5741V12.2793L28.2292 5.55764Z" fill="white"/>
<path d="M9.53948 11.0656L7.07031 9.63981L18.9423 2.78516L21.4115 4.2068L9.53948 11.0656Z" fill="white"/>
<path d="M4.72308 8.28045L2.25391 6.85465L14.1259 0L16.595 1.4258L4.72308 8.28045Z" fill="white"/>
</g>
<defs>
<clipPath id="clip0_1922_925">
<rect width="166.274" height="30" fill="white"/>
</clipPath>
</defs>
</svg>
