<svg xmlns="http://www.w3.org/2000/svg" width="195" height="34" viewBox="0 0 800 140" xmlns:v="https://vecta.io/nano"><path d="M730.8 110.7l-47.9 23.9h95.7l-47.8-23.9zm-442-44.6V23.7h40.6c16.5 0 25.3 8.8 25.3 21.2 0 12.6-8.8 21.2-25.3 21.2h-40.6zm-159.3 4c0-26.7 18.6-48.6 46.1-48.6S222 43.4 222 70.1s-18.8 48.6-46.3 48.6-46.2-21.9-46.2-48.6zm649.1 64.5H800L743.7 5.8h-25.5l-56.1 128.8h20.8l47.9-109.5 47.8 109.5zm-155.4 0H643V5.8h-19v98l-73.9-98h-19.6v128.8h18.9V37l73.8 97.6zM269.1 5.8v128.8h19.6V83.8h37.7l30.8 50.8h22.9l-33.1-54c18-5.5 28-19.3 28-36.7 0-20.7-15.8-38.1-43-38.1h-62.9zm237.1 0H391.4v17.9h47.5v110.9h19.8V23.7h47.5V5.8zM0 5.8v128.8h19.3V83.8h62.5V66.1H19.6V23.9h74.9V5.8H0zm109.2 64.3c0 37.5 27.9 66.8 66.5 66.8s66.6-29.3 66.6-66.8-28.1-66.8-66.7-66.8-66.4 29.2-66.4 66.8z"/></svg>