<svg xmlns="http://www.w3.org/2000/svg" viewBox="0 0 522.48 138.63"><defs><style>.cls-1{fill:#5e9ed5;}.cls-2{fill:#66b0e1;}.cls-3{fill:#ffd857;}.cls-4{fill:#a9d0ee;}.cls-5{fill:#79bbe7;}.cls-6{fill:#e890ae;}.cls-7{fill:#87c9ef;}.cls-8{fill:#eda6c5;}.cls-9{fill:#fff196;}.cls-10{fill:#c5e9fb;}.cls-11{fill:#669bd2;}</style></defs><title>Asset 3</title><g id="Layer_2" data-name="Layer 2"><g id="Layer_1-2" data-name="Layer 1"><path class="cls-1" d="M436.83,44.57,451.05,36a15.74,15.74,0,0,0,7.52-15.26L456.21,0,441.14,9.14A15.74,15.74,0,0,0,433.76,25l3.07,19.54"/><path class="cls-1" d="M452.57,42.61l-13.72,7.2a31.17,31.17,0,0,1,17.09,3.67l22.42,12.14a31.21,31.21,0,0,0,29-.31l15.09-8.08L519.87,57a47.64,47.64,0,0,1-15-3.93L480.43,42.14a31.25,31.25,0,0,0-27.86.47"/><path class="cls-1" d="M476.68,80.81a46.2,46.2,0,0,1-26.1-15.6L423.9,33.91c-8-9.68-20.19-12.31-30.18-7l-14,7.49,3.21,1.43A32,32,0,0,1,396.55,47.9l21.87,32.9c11.07,15,22,18,38.4,10.5l19.86-10.49"/><path class="cls-2" d="M414.5,59.46c1.5,10.06,4.59,19.85,9.44,27.82,5.43,5.37,11.05,8,17.49,8a28.68,28.68,0,0,0,7-.92C438.24,86.93,430,74.89,426,64.13a25.39,25.39,0,0,1-11.46-4.67"/><path class="cls-3" d="M467,39.09c-.67,0-1.34,0-2,.07a96,96,0,0,1-11.32,13.2c.78.34,1.55.72,2.3,1.12l22.42,12.14a31.19,31.19,0,0,0,29-.31l15.09-8.08L519.87,57a47.64,47.64,0,0,1-15-3.93L480.43,42.14a31.28,31.28,0,0,0-13.46-3"/><path class="cls-4" d="M445.29,59c-5.71,3.65-11.18,5.33-16.31,5.33a23.21,23.21,0,0,1-3-.2c4,10.76,12.28,22.8,22.44,30.19a47.9,47.9,0,0,0,8.42-3l19.86-10.49a46.2,46.2,0,0,1-26.1-15.6L445.29,59"/><path class="cls-5" d="M404.46,24.21a22.73,22.73,0,0,0-9.78,2.22q.66,2.45,1.42,4.76c4.22,12.65,10.56,22.69,18.4,28.27a95.65,95.65,0,0,1-.16-27.33c.26-1.79.56-3.54.91-5.27a23.72,23.72,0,0,0-10.79-2.65"/><path class="cls-6" d="M456.21,0,441.14,9.14A15.74,15.74,0,0,0,433.76,25v0a48.39,48.39,0,0,1,23.76-13.58L456.21,0"/><path class="cls-7" d="M415.25,26.86c-.35,1.73-.65,3.48-.91,5.27a95.65,95.65,0,0,0,.16,27.33A25.39,25.39,0,0,0,426,64.13,50.68,50.68,0,0,1,424.34,59a35.15,35.15,0,0,1,1.86-22.4l-2.3-2.71a27.43,27.43,0,0,0-8.65-7"/><path class="cls-8" d="M457.52,11.47a48.39,48.39,0,0,0-23.76,13.58l3.07,19.52L451.05,36a15.74,15.74,0,0,0,7.52-15.26l-1.05-9.3"/><path class="cls-9" d="M465,39.16a31.22,31.22,0,0,0-12.39,3.45l-13.72,7.2c.75-.06,1.5-.08,2.25-.08a31.1,31.1,0,0,1,12.54,2.63A96,96,0,0,0,465,39.16"/><path class="cls-10" d="M426.2,36.62A35.15,35.15,0,0,0,424.34,59,50.68,50.68,0,0,0,426,64.13a23.21,23.21,0,0,0,3,.2c5.13,0,10.6-1.68,16.31-5.33L426.2,36.62"/><path class="cls-11" d="M38.23,88.69a10.92,10.92,0,0,0-8.5-4.06h1.85a12.8,12.8,0,0,0,10-4.77L58.23,59.3a2.6,2.6,0,0,0-2-4.24H47.06a12.77,12.77,0,0,0-9.9,4.68L16.93,84.29V44.62A9.21,9.21,0,0,0,9,35.5l-4-.62a4.29,4.29,0,0,0-5,4.24v76.75a4.29,4.29,0,0,0,5,4.24l4-.62c4.63-1.06,8-4.52,8-9.12V88.31l24.2,25a10.92,10.92,0,0,0,8.45,4h10a2.61,2.61,0,0,0,2-4.24Z"/><path class="cls-11" d="M76.2,57.1l-5.49-.74a4.29,4.29,0,0,0-4.87,4.25V113a4.3,4.3,0,0,0,4.87,4.26l5.49-.75a9.2,9.2,0,0,0,8-9.12V66.22A9.21,9.21,0,0,0,76.2,57.1Z"/><path class="cls-11" d="M136.49,33.84l-4,.62a9.26,9.26,0,0,0-8,9.12V55.12H107.87a18.6,18.6,0,0,0-18.6,18.6v25a18.6,18.6,0,0,0,18.6,18.6h17.21l2.64,0a12.93,12.93,0,0,0,4.77,2.15l4,.62a4.25,4.25,0,0,0,5-4.24V38.08A4.29,4.29,0,0,0,136.49,33.84ZM106.24,96.48V76a9.41,9.41,0,0,1,9.42-9.41h8.86v39.29h-8.86A9.41,9.41,0,0,1,106.24,96.48Z"/><path class="cls-11" d="M349.94,138.58l4-.62a9.21,9.21,0,0,0,8-9.13V117.3h16.65a18.6,18.6,0,0,0,18.6-18.6v-25a18.6,18.6,0,0,0-18.6-18.6H361.35l-2.64,0a9.21,9.21,0,0,0-4.77-2.15l-4-.63a4.31,4.31,0,0,0-5,4.25v77.79A4.29,4.29,0,0,0,349.94,138.58Zm30.25-62.64V96.41a9.41,9.41,0,0,1-9.42,9.41h-8.86V66.53h8.86A9.41,9.41,0,0,1,380.19,75.94Z"/><path class="cls-11" d="M249.56,55.08c-16.33,0-29.57,6.21-29.57,31.13s13.24,31.13,29.57,31.13,29.57-6.21,29.57-31.13S265.89,55.08,249.56,55.08Zm0,51.29c-6.3,0-11.41-2.13-11.41-20.16s5.11-20.16,11.41-20.16S261,68.18,261,86.21,255.86,106.37,249.56,106.37Z"/><path class="cls-11" d="M311.87,55.08c-16.33,0-29.57,6.21-29.57,31.13s13.24,31.13,29.57,31.13,29.57-6.21,29.57-31.13S328.2,55.08,311.87,55.08Zm0,51.29c-6.3,0-11.4-2.13-11.4-20.16s5.1-20.16,11.4-20.16,11.41,2.13,11.41,20.16S318.17,106.37,311.87,106.37Z"/><path class="cls-11" d="M177.5,79.83h-7.87a6.41,6.41,0,0,1-6.4-6.4,6.86,6.86,0,0,1,6.86-6.87h13.12a11.54,11.54,0,0,0,11.09-8.5c.25-1,.68-3-2.84-3H163.68a17.42,17.42,0,0,0-17.42,17.43v1.37a17.47,17.47,0,0,0,17.42,17.43h9.24a6.82,6.82,0,0,1,6.82,6.82,7.73,7.73,0,0,1-7.73,7.73H157.33q-.42,0-.78,0a11.53,11.53,0,0,0-10.3,8.47c-.26,1-.68,3,2.83,3h29.33A18.3,18.3,0,0,0,196.71,99,19.27,19.27,0,0,0,177.5,79.83Z"/><path class="cls-11" d="M216.81,43.58a9.21,9.21,0,0,0-8-9.12l-4-.62a4.29,4.29,0,0,0-5,4.24v77.79a4.29,4.29,0,0,0,5,4.24l4-.62a9.29,9.29,0,0,0,8-9.12Z"/></g></g></svg>