<svg xmlns="http://www.w3.org/2000/svg" viewBox="0 0 238.28 48.84"><defs><style>.cls-1{fill:#787473;}.cls-2{fill:#e65933;}</style></defs><g id="Layer_2" data-name="Layer 2"><g id="Layer_1-2" data-name="Layer 1"><path class="cls-1" d="M6,0a6,6,0,1,0,6,6A6,6,0,0,0,6,0Z"/><path class="cls-2" d="M42.2,0a6,6,0,1,0,6,6,6,6,0,0,0-6-6Z"/><path class="cls-2" d="M6,36.88a6,6,0,1,0,6,6,6,6,0,0,0-6-6Z"/><path class="cls-1" d="M42.2,36.88a6,6,0,1,0,6,6,6,6,0,0,0-6-6Z"/><path class="cls-2" d="M16.09,24.82H6V36a6.9,6.9,0,0,1,6.89,6.89H24V32.76Z"/><path class="cls-1" d="M32.73,24.82,24.85,32.7V42.86H35.31A6.9,6.9,0,0,1,42.2,36q.34,0,.69,0V24.82Z"/><path class="cls-2" d="M42.2,12.87A6.9,6.9,0,0,1,35.31,6H24.85V16.28L32.59,24h10.3V12.83C42.66,12.85,42.43,12.87,42.2,12.87Z"/><path class="cls-1" d="M24,16.22V6H12.87A6.9,6.9,0,0,1,6,12.87V24H16.22Z"/><path class="cls-2" d="M56.25,30V10.84a2.2,2.2,0,0,1,.65-1.6,2.48,2.48,0,0,1,1.59-.71h4.29L67,24.89,71.24,8.53h6.53V30H73.66V12.7L69.31,30H64.77L60.35,12.7V30Z"/><path class="cls-2" d="M80.1,30V10.84A2.2,2.2,0,0,1,82.34,8.6h13.3v3.66H84.45v4.61h8.33V18.3a2.22,2.22,0,0,1-2.24,2.23H84.45V26H95.64v4Z"/><path class="cls-2" d="M97.66,30V10.84A2.2,2.2,0,0,1,99.9,8.6h13.31v3.66H102v4.61h8.33V18.3a2.22,2.22,0,0,1-2.24,2.23H102V26h11.19v4Z"/><path class="cls-2" d="M121.57,30V12.39h-6.34V10.84a2.2,2.2,0,0,1,.65-1.6,2.17,2.17,0,0,1,1.59-.64h14.8v3.79H126V30Z"/><path class="cls-2" d="M134.35,30V10.84a2.2,2.2,0,0,1,.65-1.6,2.17,2.17,0,0,1,1.59-.64h2.17V30Z"/><path class="cls-2" d="M140.22,30V10.84a2.17,2.17,0,0,1,.66-1.6,2.44,2.44,0,0,1,1.58-.71h2.36l8.71,14.74V8.53h4.35V30h-4.54l-8.76-14.74V30Z"/><path class="cls-2" d="M175.88,27.43a6.89,6.89,0,0,1-2.67,2.37,10,10,0,0,1-10.82-2.37c-1.82-2-2.73-4.72-2.73-8.2s.88-6.16,2.67-8.15A9.49,9.49,0,0,1,169.73,8a10.84,10.84,0,0,1,6.59,1.93,8.24,8.24,0,0,1,3.05,5.35h-3a2,2,0,0,1-1.93-1.18,4.65,4.65,0,0,0-1.24-1.37,5.62,5.62,0,0,0-3.29-.87,5.14,5.14,0,0,0-4.23,1.92,8.87,8.87,0,0,0-1.56,5.48,8.41,8.41,0,0,0,1.62,5.47,5.33,5.33,0,0,0,4.42,1.93,5.18,5.18,0,0,0,3.48-1.18A5.8,5.8,0,0,0,175.39,22h-2.62a2.22,2.22,0,0,1-2.23-2.24V18.36h8.89V30h-1.19a2.05,2.05,0,0,1-2.17-1.74Z"/><path class="cls-1" d="M181.63,30V10.84a2.17,2.17,0,0,1,.66-1.6,2.15,2.15,0,0,1,1.58-.64h2.18v8h8.83v-8h4.47V30h-4.47V20.47h-8.83V30Z"/><path class="cls-1" d="M206,8.53V21.9a5.91,5.91,0,0,0,.93,3.67,4.06,4.06,0,0,0,3.17,1.12,4.21,4.21,0,0,0,3.18-1.12,5.5,5.5,0,0,0,1-3.67V8.53h4.42V22.4a7.79,7.79,0,0,1-2.24,6q-2.06,2.05-6.35,2.05t-6.34-2.05a7.79,7.79,0,0,1-2.24-6V10.9a2.45,2.45,0,0,1,.65-1.66,2.11,2.11,0,0,1,1.59-.71Z"/><path class="cls-1" d="M220.75,30V10.84A2.2,2.2,0,0,1,223,8.6h7.84a8,8,0,0,1,5,1.36,5.07,5.07,0,0,1,1.74,4,5.13,5.13,0,0,1-.69,2.73A4.75,4.75,0,0,1,235,18.42a5.63,5.63,0,0,1,2.49,1.93,5.4,5.4,0,0,1,.81,3.11,6.1,6.1,0,0,1-2,4.85A8.89,8.89,0,0,1,230.51,30ZM225,16.87h5a4,4,0,0,0,2.36-.56,2,2,0,0,0,.75-1.74,2,2,0,0,0-.75-1.75,4.13,4.13,0,0,0-2.42-.49h-5Zm0,9.26h5.22a4.5,4.5,0,0,0,2.67-.68,2.43,2.43,0,0,0,.87-2.12,2.58,2.58,0,0,0-.87-2.17,4.55,4.55,0,0,0-2.74-.63H225Z"/><path class="cls-1" d="M71.83,39.08l2.91-4.28H73.48L71.4,38,70.11,34.8h-1.5L70.46,39,70,42.09h1.38Z"/><path class="cls-1" d="M79.27,41.23A3.58,3.58,0,0,0,80,39.05a2.65,2.65,0,0,0-.61-1.83,2.08,2.08,0,0,0-1.62-.68,2.47,2.47,0,0,0-2,.94A3.51,3.51,0,0,0,75,39.73a3,3,0,0,0,.3,1.39,1.8,1.8,0,0,0,.86.84,2.67,2.67,0,0,0,1.17.27A2.27,2.27,0,0,0,79.27,41.23Zm-2.72-.3a1.38,1.38,0,0,1-.32-1,4.22,4.22,0,0,1,.33-1.61,1.13,1.13,0,0,1,1.1-.8c.72,0,1.09.47,1.09,1.41a3.73,3.73,0,0,1-.34,1.57,1.13,1.13,0,0,1-1.07.75A1.06,1.06,0,0,1,76.55,40.93Z"/><path class="cls-1" d="M87.2,36.65H86L85.61,39a5.56,5.56,0,0,1-.29,1.19,1.63,1.63,0,0,1-.54.71,1.21,1.21,0,0,1-.76.31.61.61,0,0,1-.43-.15.56.56,0,0,1-.17-.42c0-.07,0-.26.08-.57l.57-3.38h-1.2l-.53,3.14a8.07,8.07,0,0,0-.13,1.07,1.38,1.38,0,0,0,.34.92,1.18,1.18,0,0,0,1,.41,2.06,2.06,0,0,0,1.84-1.29l-.19,1.19h1.11Z"/><path class="cls-1" d="M90.61,40A4.34,4.34,0,0,1,91,38.7a1.78,1.78,0,0,1,.62-.63,1.56,1.56,0,0,1,.84-.23h.26l.16-1.34H92.7c-.78,0-1.41.54-1.88,1.63l.25-1.49H90l-.91,5.44h1.2Z"/><path class="cls-1" d="M97.75,40.77a2.31,2.31,0,0,0,2.42,1.44,2.58,2.58,0,0,0,1.75-.52,1.64,1.64,0,0,0,.59-1.29,1.31,1.31,0,0,0-.25-.8,1.53,1.53,0,0,0-.66-.54,10.25,10.25,0,0,0-1.28-.45,1.09,1.09,0,0,1-.51-.24.43.43,0,0,1-.12-.34.53.53,0,0,1,.25-.46,1.14,1.14,0,0,1,.63-.16,1.21,1.21,0,0,1,1.18.71l1-.34a2.31,2.31,0,0,0-2.24-1.28A2.07,2.07,0,0,0,99,37a1.66,1.66,0,0,0-.54,1.23,1.4,1.4,0,0,0,.24.81,1.52,1.52,0,0,0,.6.53,7.57,7.57,0,0,0,1.08.37,2.21,2.21,0,0,1,.65.26.44.44,0,0,1,.19.36.63.63,0,0,1-.29.52,1.29,1.29,0,0,1-.76.2,1.24,1.24,0,0,1-1.29-.82Z"/><path class="cls-1" d="M105.9,41.13a1.51,1.51,0,0,0,1.52,1.12,1.9,1.9,0,0,0,1.67-1.09,4.49,4.49,0,0,0,.65-2.39,2.65,2.65,0,0,0-.48-1.67,1.46,1.46,0,0,0-1.23-.62c-.68,0-1.24.43-1.69,1.3l.18-1.13h-1.07L104.22,44h1.2Zm.54-.2a1.47,1.47,0,0,1-.32-1,3.38,3.38,0,0,1,.44-1.69,1.26,1.26,0,0,1,1.08-.77c.57,0,.85.47.85,1.41a4.15,4.15,0,0,1-.33,1.62c-.23.53-.55.79-1,.79A1,1,0,0,1,106.44,40.93Z"/><path class="cls-1" d="M116.13,41.77a14.41,14.41,0,0,1,.27-1.86,14.69,14.69,0,0,0,.26-1.72,1.47,1.47,0,0,0-.59-1.22,2.52,2.52,0,0,0-1.6-.46,2.44,2.44,0,0,0-2.38,1.32l1.07.34a1.32,1.32,0,0,1,1.26-.75,1.2,1.2,0,0,1,.74.22.76.76,0,0,1,.31.66,3.67,3.67,0,0,1,0,.39l-.53,0a4.74,4.74,0,0,0-2.55.54,1.66,1.66,0,0,0-.81,1.46,1.48,1.48,0,0,0,.46,1.11,1.59,1.59,0,0,0,1.18.45,2,2,0,0,0,1.11-.35,2.3,2.3,0,0,0,.77-1,5,5,0,0,0-.1.93,2.18,2.18,0,0,0,0,.24h1.18c0-.11,0-.22,0-.32Zm-1.46-1a1.38,1.38,0,0,1-1,.47.81.81,0,0,1-.6-.2.68.68,0,0,1-.22-.53.92.92,0,0,1,.54-.86,5,5,0,0,1,1.94-.37A2.83,2.83,0,0,1,114.67,40.81Z"/><path class="cls-1" d="M122.38,40.12c-.27.71-.68,1.07-1.22,1.07a1,1,0,0,1-.7-.29,1.4,1.4,0,0,1-.3-1,3.38,3.38,0,0,1,.39-1.65,1.18,1.18,0,0,1,1-.72c.57,0,.92.36,1.06,1.07l1-.2a2.23,2.23,0,0,0-.72-1.4,2.07,2.07,0,0,0-1.41-.49,2.25,2.25,0,0,0-1.87,1,3.69,3.69,0,0,0-.74,2.29,2.55,2.55,0,0,0,.6,1.81,2.06,2.06,0,0,0,1.56.64,2.47,2.47,0,0,0,2.31-1.73Z"/><path class="cls-1" d="M129.05,40.27a1.39,1.39,0,0,1-1.28,1,1,1,0,0,1-.85-.37,1.6,1.6,0,0,1-.29-1,3.29,3.29,0,0,1,0-.41h3.74c0-.15,0-.29,0-.42a2.92,2.92,0,0,0-.56-1.88,2,2,0,0,0-1.65-.69,2.47,2.47,0,0,0-2,.95,3.65,3.65,0,0,0-.77,2.35,2.5,2.5,0,0,0,.61,1.75,2.19,2.19,0,0,0,1.69.66,2.49,2.49,0,0,0,2.37-1.67Zm-2.26-1.53c.21-.92.69-1.38,1.42-1.38s1.07.46,1.07,1.38Z"/><path class="cls-1" d="M140.81,41.23a3.63,3.63,0,0,0,.72-2.18,2.65,2.65,0,0,0-.61-1.83,2.1,2.1,0,0,0-1.63-.68,2.49,2.49,0,0,0-2,.94,3.56,3.56,0,0,0-.76,2.25,3,3,0,0,0,.3,1.39,1.8,1.8,0,0,0,.86.84,2.67,2.67,0,0,0,1.17.27A2.3,2.3,0,0,0,140.81,41.23Zm-2.73-.3a1.38,1.38,0,0,1-.32-1,4.22,4.22,0,0,1,.33-1.61,1.13,1.13,0,0,1,1.1-.8c.73,0,1.09.47,1.09,1.41a3.73,3.73,0,0,1-.34,1.57,1.13,1.13,0,0,1-1.07.75A1.06,1.06,0,0,1,138.08,40.93Z"/><path class="cls-1" d="M148.44,38.94a5.93,5.93,0,0,0,.1-.91,1.45,1.45,0,0,0-.43-1.12,1.47,1.47,0,0,0-1-.4,1.73,1.73,0,0,0-.85.23,2.93,2.93,0,0,0-.94,1.18l.22-1.27H144.4l-.91,5.44h1.2l.41-2.44a3.67,3.67,0,0,1,.58-1.61,1.21,1.21,0,0,1,1-.56.64.64,0,0,1,.52.21.8.8,0,0,1,.16.51,5.28,5.28,0,0,1,0,.62l-.56,3.27h1.2Z"/><path class="cls-1" d="M153.15,34.8H151.9l-1.22,7.29h1.25Z"/><path class="cls-1" d="M157.2,34.72h-1.26L155.72,36H157Zm-.33,1.93h-1.25l-.91,5.44H156Z"/><path class="cls-1" d="M163.68,38.94a6.28,6.28,0,0,0,.11-.91,1.45,1.45,0,0,0-.44-1.12,1.43,1.43,0,0,0-1-.4,1.73,1.73,0,0,0-.85.23,2.85,2.85,0,0,0-.94,1.18l.21-1.27h-1.11l-.91,5.44h1.2l.41-2.44a3.67,3.67,0,0,1,.59-1.61,1.21,1.21,0,0,1,1-.56.61.61,0,0,1,.51.21.8.8,0,0,1,.17.51,3.89,3.89,0,0,1-.06.62L162,42.09h1.2Z"/><path class="cls-1" d="M169.61,40.27a1.39,1.39,0,0,1-1.28,1,1,1,0,0,1-.84-.37,1.54,1.54,0,0,1-.3-1,3.51,3.51,0,0,1,0-.41H171a3.1,3.1,0,0,0,0-.42,2.92,2.92,0,0,0-.56-1.88,2,2,0,0,0-1.65-.69,2.43,2.43,0,0,0-2,.95,3.59,3.59,0,0,0-.77,2.35,2.46,2.46,0,0,0,.61,1.75,2.18,2.18,0,0,0,1.68.66,2.49,2.49,0,0,0,2.37-1.67Zm-2.25-1.53c.21-.92.68-1.38,1.42-1.38s1.07.46,1.07,1.38Z"/><path class="cls-1" d="M174.19,42l.2-1.22h-1.27l-.23,1.33h.6l-.91,1.58h.47Z"/><path class="cls-1" d="M185.43,41.77a14.41,14.41,0,0,1,.27-1.86,14.69,14.69,0,0,0,.26-1.72,1.47,1.47,0,0,0-.59-1.22,2.52,2.52,0,0,0-1.6-.46,2.44,2.44,0,0,0-2.38,1.32l1.07.34a1.31,1.31,0,0,1,1.25-.75,1.19,1.19,0,0,1,.75.22.76.76,0,0,1,.31.66,3.67,3.67,0,0,1,0,.39l-.52,0a4.7,4.7,0,0,0-2.55.54,1.65,1.65,0,0,0-.82,1.46,1.51,1.51,0,0,0,.45,1.11,1.65,1.65,0,0,0,1.19.45,1.92,1.92,0,0,0,1.11-.35,2.3,2.3,0,0,0,.77-1,5,5,0,0,0-.1.93,2.18,2.18,0,0,0,0,.24h1.18c0-.11,0-.22,0-.32Zm-1.46-1a1.38,1.38,0,0,1-1,.47.81.81,0,0,1-.6-.2.68.68,0,0,1-.22-.53.92.92,0,0,1,.54-.86,5,5,0,0,1,1.94-.37A2.83,2.83,0,0,1,184,40.81Z"/><path class="cls-1" d="M193.06,38.94a6.28,6.28,0,0,0,.11-.91,1.48,1.48,0,0,0-.43-1.12,1.47,1.47,0,0,0-1-.4,1.73,1.73,0,0,0-.85.23,2.93,2.93,0,0,0-.94,1.18l.22-1.27H189l-.9,5.44h1.19l.41-2.44a3.67,3.67,0,0,1,.59-1.61,1.21,1.21,0,0,1,1-.56.6.6,0,0,1,.5.21.75.75,0,0,1,.17.51,5.28,5.28,0,0,1,0,.62l-.56,3.27h1.2Z"/><path class="cls-1" d="M195.14,44.07a2.36,2.36,0,0,0,1-.2,1.73,1.73,0,0,0,.61-.5,8.85,8.85,0,0,0,.59-1.09l2.79-5.63h-1l-1.8,3.75-.82-3.75h-1.28l1.33,5.2-.21.43a1.21,1.21,0,0,1-.45.59,1.14,1.14,0,0,1-.63.16,4.83,4.83,0,0,1-.71-.05l-.06,1a5.13,5.13,0,0,0,.65,0Z"/><path class="cls-1" d="M204.09,41.12l-.39,0c-.52,0-.77-.17-.77-.52a4.69,4.69,0,0,1,.07-.58l.41-2.41h1.17l.16-1h-1.17l.26-1.53-1.09.07-.33,1.46h-.82l-.16,1h.8l-.41,2.4a7.34,7.34,0,0,0-.12,1,1.1,1.1,0,0,0,.35.82,1.51,1.51,0,0,0,1.1.34,5,5,0,0,0,.77-.08Z"/><path class="cls-1" d="M208.69,34.72h-1.26L207.22,36h1.25Zm-.33,1.93h-1.25l-.91,5.44h1.25Z"/><path class="cls-1" d="M218.62,39a7.75,7.75,0,0,0,.12-1.06,1.37,1.37,0,0,0-.43-1.06,1.52,1.52,0,0,0-1.08-.4,2.24,2.24,0,0,0-1.92,1.28,1.3,1.3,0,0,0-1.42-1.28,1.65,1.65,0,0,0-1,.37,2.22,2.22,0,0,0-.73,1l.2-1.22h-1.19l-.91,5.44h1.22l.31-1.87A4.91,4.91,0,0,1,212.5,38a1.35,1.35,0,0,1,1-.5.6.6,0,0,1,.67.68c0,.13,0,.39-.09.75l-.54,3.16h1.2l.4-2.38c.25-1.46.78-2.19,1.57-2.19.51,0,.76.24.76.72a3.28,3.28,0,0,1-.07.56l-.55,3.29h1.26Z"/><path class="cls-1" d="M224.56,40.27a1.4,1.4,0,0,1-1.29,1,1,1,0,0,1-.84-.37,1.6,1.6,0,0,1-.29-1,2.17,2.17,0,0,1,0-.41h3.73c0-.15,0-.29,0-.42a2.92,2.92,0,0,0-.55-1.88,2,2,0,0,0-1.65-.69,2.47,2.47,0,0,0-2,.95,3.65,3.65,0,0,0-.77,2.35,2.5,2.5,0,0,0,.61,1.75,2.18,2.18,0,0,0,1.68.66,2.48,2.48,0,0,0,2.37-1.67Zm-2.26-1.53c.21-.92.69-1.38,1.42-1.38s1.07.46,1.07,1.38Z"/></g></g></svg>