<svg xmlns="http://www.w3.org/2000/svg" viewBox="0 0 747.04 199.33"><defs><style>.cls-1{fill:#00a99f;}</style></defs><g id="Layer_2" data-name="Layer 2"><g id="Layer_1-2" data-name="Layer 1"><path class="cls-1" d="M217.69,174.2c2.92,3.5,7.31,5.84,13.74,5.84a34.86,34.86,0,0,0,11.36-2.21,9.64,9.64,0,0,1,11.76,4.78h0a9.71,9.71,0,0,1-5.5,13.56,53.25,53.25,0,0,1-17.62,3.16c-12.86,0-23.68-5.26-30.11-13.44-8.18-10.23-8.18-21.34-8.18-38V35.09a10.23,10.23,0,0,1,10.23-10.23h0A10.23,10.23,0,0,1,213.6,35.09v22.8h26a9.06,9.06,0,0,1,9.06,9h0A9.06,9.06,0,0,1,239.61,76h-26v71.89C213.6,163.68,213.6,168.94,217.69,174.2Z"/><path class="cls-1" d="M346.6,69.26l-.09.26a9.49,9.49,0,0,1-10.44,6.33,42.51,42.51,0,0,0-6-.43c-10.52,0-20.45,3.8-26,10.52-7,8.18-7,20.46-7,38.87v62.54a10.23,10.23,0,0,1-10.23,10.23h0a10.23,10.23,0,0,1-10.23-10.23V124.81c0-23.67,0-37.41,11.69-51.14,11.4-13.45,28.35-17.54,41.79-17.54a66,66,0,0,1,8.69.57A9.62,9.62,0,0,1,346.6,69.26Z"/><path class="cls-1" d="M376,57.89a10.22,10.22,0,0,1,10.23,10.22V132.7c0,18.12,0,30.39,8.47,38.87,5,5,12.57,8.47,22.21,8.47s17.24-3.51,22.21-8.47c8.48-8.48,8.48-20.75,8.48-38.87V68.11a10.22,10.22,0,0,1,10.22-10.22h0a10.22,10.22,0,0,1,10.23,10.22V132.7c0,20.46,0,37.4-13.73,51.72-7,7.31-19.58,14.91-37.41,14.91s-30.39-7.6-37.41-14.91c-13.73-14.32-13.73-31.26-13.73-51.72V68.11A10.22,10.22,0,0,1,376,57.89Z"/><path class="cls-1" d="M518,34.79V187.35a10.23,10.23,0,0,1-10.23,10.23h0a10.23,10.23,0,0,1-10.23-10.23V34.79a10.23,10.23,0,0,1,10.23-10.23h0A10.23,10.23,0,0,1,518,34.79Z"/><path class="cls-1" d="M605.91,180a79.51,79.51,0,0,0,27.54-4.86A9.76,9.76,0,0,1,645.66,180h0a9.72,9.72,0,0,1-5.37,13.34,99.44,99.44,0,0,1-34.38,6c-20.16,0-36.24-7.31-45.59-19.87-11.1-15.2-11.1-32.73-11.1-51.73,0-22.79,0-36.24,10.52-50.85,9.35-13.15,26.88-20.75,47.63-20.75,14.61,0,26.3,3.8,35.07,10.81a40.18,40.18,0,0,1,14.61,29.52,34.77,34.77,0,0,1-14.61,28.64c-12.27,8.77-24.84,8.77-45.59,8.77H570c0,7.6,0,24.84,6.72,33.9C582.53,175.66,591.88,180,605.91,180ZM629,81.56c-5-4.1-12.57-6.14-21.63-6.14-13.15,0-23.67,3.8-30.1,11.4-7.3,8.47-7.3,23.08-7.3,28.93h26.88c18.41,0,26.6,0,32.73-4.68a18.12,18.12,0,0,0,7-14.61A21.28,21.28,0,0,0,629,81.56Z"/><path class="cls-1" d="M709.13,174.2c2.92,3.5,7.31,5.84,13.74,5.84a34.86,34.86,0,0,0,11.36-2.21A9.64,9.64,0,0,1,746,182.61h0a9.71,9.71,0,0,1-5.5,13.56,53.25,53.25,0,0,1-17.62,3.16c-12.86,0-23.68-5.26-30.11-13.44-8.18-10.23-8.18-21.34-8.18-38V35.09a10.23,10.23,0,0,1,10.23-10.23h0A10.23,10.23,0,0,1,705,35.09v22.8h26a9.06,9.06,0,0,1,9.06,9h0A9.06,9.06,0,0,1,731.05,76H705v71.89C705,163.68,705,168.94,709.13,174.2Z"/><path class="cls-1" d="M53.11,76.42A10.33,10.33,0,0,1,48.3,57L66.82,47.2a18.57,18.57,0,0,1,17.3,0l18.53,9.74A10.33,10.33,0,1,1,93,75.22L75.48,66,57.91,75.23A10.24,10.24,0,0,1,53.11,76.42Z"/><path class="cls-1" d="M36.52,138.18a10.29,10.29,0,0,1-6.18-2.06A75.58,75.58,0,0,1,75.56,0h0a75.57,75.57,0,0,1,45.62,135.83,10.33,10.33,0,1,1-12.48-16.46A54.92,54.92,0,0,0,75.57,20.65h0a54.92,54.92,0,0,0-32.85,98.93,10.33,10.33,0,0,1-6.19,18.6Z"/></g></g></svg>