<svg width="287" height="76" viewBox="0 0 287 76" fill="none" xmlns="http://www.w3.org/2000/svg">
<path d="M0.525375 67.28L35.7574 13.904H13.1014V24.848H1.96538V6.992H53.4214V13.712L18.1894 67.088H43.2454V54.224H54.3814V74H0.525375V67.28ZM86.5834 75.152C82.6154 75.152 79.0954 74.512 76.0234 73.232C73.0154 71.888 70.4554 70.064 68.3434 67.76C66.2954 65.392 64.7274 62.608 63.6394 59.408C62.5514 56.144 62.0074 52.592 62.0074 48.752C62.0074 44.72 62.5514 41.072 63.6394 37.808C64.7914 34.544 66.3914 31.792 68.4394 29.552C70.5514 27.312 73.0474 25.584 75.9274 24.368C78.8714 23.152 82.1354 22.544 85.7194 22.544C89.3034 22.544 92.5354 23.088 95.4154 24.176C98.2954 25.264 100.727 26.832 102.711 28.88C104.759 30.864 106.327 33.296 107.415 36.176C108.503 39.056 109.047 42.256 109.047 45.776V49.04H77.4634V52.88C77.4634 57.168 78.5834 60.4 80.8234 62.576C83.0634 64.752 86.0394 65.84 89.7514 65.84C93.2074 65.84 95.9914 65.072 98.1034 63.536C100.215 61.936 101.719 60.016 102.615 57.776L107.895 60.944C107.319 62.544 106.487 64.176 105.399 65.84C104.311 67.504 102.903 69.04 101.175 70.448C99.4474 71.792 97.3674 72.912 94.9354 73.808C92.5034 74.704 89.7194 75.152 86.5834 75.152ZM77.4634 42.992H93.9754V41.648C93.9754 37.04 93.2394 33.808 91.7674 31.952C90.2954 30.096 88.2794 29.168 85.7194 29.168C83.1594 29.168 81.1434 30.096 79.6714 31.952C78.1994 33.808 77.4634 37.04 77.4634 41.648V42.992ZM138.078 75.152C134.558 75.152 131.87 74.512 130.014 73.232C128.158 71.888 126.974 70.416 126.462 68.816H126.078V74H116.67V59.024H126.078V60.56C126.078 63.056 126.846 64.944 128.382 66.224C129.918 67.504 132.414 68.144 135.87 68.144C138.942 68.144 141.182 67.664 142.59 66.704C143.998 65.744 144.702 64.272 144.702 62.288C144.702 60.688 144.19 59.472 143.166 58.64C142.142 57.744 140.446 56.944 138.078 56.24L133.566 54.992C127.998 53.456 123.87 51.408 121.182 48.848C118.558 46.224 117.246 42.704 117.246 38.288C117.246 33.232 118.91 29.36 122.238 26.672C125.566 23.92 129.95 22.544 135.39 22.544C138.782 22.544 141.374 23.184 143.166 24.464C144.958 25.744 146.11 27.184 146.622 28.784H147.006V23.696H156.414V38.672H147.006V36.944C147.006 34.512 146.238 32.688 144.702 31.472C143.23 30.192 140.798 29.552 137.406 29.552C132.542 29.552 130.11 31.312 130.11 34.832C130.11 36.496 130.59 37.84 131.55 38.864C132.574 39.888 134.398 40.72 137.022 41.36L141.15 42.416C143.838 43.12 146.206 43.92 148.254 44.816C150.302 45.712 151.998 46.8 153.342 48.08C154.75 49.296 155.806 50.8 156.51 52.592C157.214 54.32 157.566 56.4 157.566 58.832C157.566 64.144 155.774 68.208 152.19 71.024C148.606 73.776 143.902 75.152 138.078 75.152ZM180.7 74.96C176.86 74.96 174.012 74.128 172.156 72.464C170.364 70.736 169.468 68.208 169.468 64.88V30.416H162.748V23.696H165.34C167.452 23.696 168.988 23.248 169.948 22.352C170.972 21.392 171.932 19.984 172.828 18.128L176.86 9.776H184.06V23.696H195.1V30.416H184.06V67.472H195.1V73.136C194.076 73.584 192.252 74 189.628 74.384C187.004 74.768 184.028 74.96 180.7 74.96ZM214.09 17.072C211.402 17.072 209.29 16.336 207.754 14.864C206.282 13.392 205.546 11.408 205.546 8.912V8.432C205.546 5.936 206.282 3.95199 207.754 2.47999C209.29 1.008 211.402 0.271999 214.09 0.271999C216.778 0.271999 218.858 1.008 220.33 2.47999C221.866 3.95199 222.634 5.936 222.634 8.432V8.912C222.634 11.408 221.866 13.392 220.33 14.864C218.858 16.336 216.778 17.072 214.09 17.072ZM201.13 67.664H206.89V33.392L201.13 32.144V26.672L221.482 22.544V67.664H227.242V74H201.13V67.664ZM233.286 67.664H239.046V30.416H233.286V23.696H239.046V19.76C239.046 13.808 240.902 9.2 244.614 5.936C248.326 2.672 253.542 1.04 260.262 1.04C262.502 1.04 264.422 1.328 266.022 1.904C267.686 2.416 269.062 3.12 270.15 4.016C271.238 4.912 272.038 5.936 272.55 7.088C273.062 8.24 273.318 9.424 273.318 10.64C273.318 12.688 272.742 14.352 271.59 15.632C270.438 16.912 268.838 17.552 266.79 17.552C264.678 17.552 263.078 16.976 261.99 15.824C260.902 14.672 260.358 13.264 260.358 11.6C260.358 10.32 260.614 9.328 261.126 8.62399C261.702 7.92 262.278 7.44 262.854 7.184V6.608C262.214 6.48 261.446 6.41599 260.55 6.41599C258.118 6.41599 256.358 7.248 255.27 8.912C254.182 10.576 253.638 13.328 253.638 17.168V23.696H263.238V30.416H253.638V67.664H261.318V74H233.286V67.664ZM278.333 75.152C275.517 75.152 273.373 74.352 271.901 72.752C270.429 71.088 269.693 69.104 269.693 66.8V66.416C269.693 64.112 270.429 62.16 271.901 60.56C273.373 58.896 275.517 58.064 278.333 58.064C281.149 58.064 283.293 58.896 284.765 60.56C286.237 62.16 286.973 64.112 286.973 66.416V66.8C286.973 69.104 286.237 71.088 284.765 72.752C283.293 74.352 281.149 75.152 278.333 75.152Z" fill="#2A2A2A"/>
</svg>
